<?xml version="1.0" standalone="no"?>
<!DOCTYPE svg PUBLIC "-//W3C//DTD SVG 20010904//EN"
 "http://www.w3.org/TR/2001/REC-SVG-20010904/DTD/svg10.dtd">
<svg version="1.0" xmlns="http://www.w3.org/2000/svg"
 viewBox="0 0 1920 1080"
 preserveAspectRatio="xMidYMid meet">

<g transform="translate(0.000000,878.500000) scale(0.100000,-0.100000)"
fill="#000000" stroke="none">
<path d="M3665 6771 l-2950 -6 0 -2985 0 -2985 2995 0 2995 0 5 1395 c4 1164
7 1388 18 1350 41 -142 77 -254 103 -320 16 -41 29 -78 29 -82 0 -4 11 -31 24
-60 13 -29 34 -75 46 -103 84 -192 269 -517 356 -624 7 -9 43 -57 81 -107 96
-128 150 -191 293 -337 303 -311 612 -538 995 -730 50 -25 111 -55 138 -66 26
-12 68 -31 95 -42 159 -72 467 -166 687 -209 33 -6 69 -14 80 -16 27 -7 133
-23 230 -36 51 -7 549 -12 1393 -14 l1312 -4 1 1157 0 1158 25 -80 c14 -44 34
-109 45 -145 107 -352 332 -754 588 -1050 92 -106 264 -275 362 -356 351 -289
803 -515 1209 -606 25 -5 63 -14 85 -19 284 -65 783 -78 1075 -28 632 108
1160 373 1615 811 212 204 369 406 537 693 60 102 184 380 223 500 26 81 53
171 64 220 7 28 16 66 21 85 23 95 31 143 59 365 15 116 13 448 -4 585 -23
197 -34 263 -66 390 -4 19 -12 53 -18 75 -28 119 -96 308 -168 470 -145 324
-373 648 -639 905 -400 389 -868 646 -1409 776 -123 29 -195 42 -375 64 -179
22 -624 7 -795 -26 -180 -35 -328 -70 -405 -97 -234 -82 -258 -92 -424 -172
-185 -90 -399 -228 -579 -374 -90 -73 -276 -256 -368 -362 -266 -306 -481
-698 -603 -1099 -19 -63 -39 -126 -45 -140 -7 -17 -10 338 -10 1128 l-1 1152
-2922 0 c-1608 0 -2952 2 -2988 3 -36 2 -1392 1 -3015 -2z"/>
</g>
</svg>