<?xml version="1.0" encoding="UTF-8"?>
<svg version="1.1" xmlns="http://www.w3.org/2000/svg" width="500" height="500">
<path d="M0 0 C1.37468697 -0.00855011 1.37468697 -0.00855011 2.77714539 -0.01727295 C4.71087512 -0.02666691 6.64462047 -0.03323445 8.57836914 -0.03710938 C11.46596118 -0.04672267 14.35281153 -0.07776178 17.24023438 -0.109375 C33.87681865 -0.20524385 49.93341252 1.62157221 66.01171875 6.015625 C67.45623413 6.40355225 67.45623413 6.40355225 68.92993164 6.79931641 C95.68673067 14.19208274 120.94462326 28.07797599 140.19921875 48.203125 C140.98296875 48.96625 141.76671875 49.729375 142.57421875 50.515625 C143.44046875 51.4025 144.30671875 52.289375 145.19921875 53.203125 C146.13314453 54.12544922 146.13314453 54.12544922 147.0859375 55.06640625 C170.92932341 79.85154169 185.11729224 118.05187944 186.19921875 152.203125 C186.23917969 153.28335938 186.27914063 154.36359375 186.3203125 155.4765625 C186.50974811 165.39407409 186.09453525 175.99244477 183.18334961 185.53198242 C181.59615064 191.82138469 181.86071102 198.28483301 181.8203125 204.73046875 C181.80411404 206.12912633 181.78693163 207.52777282 181.76881409 208.92640686 C181.72340973 212.58373915 181.68844469 216.24108664 181.65661621 219.89855957 C181.60445096 225.77659128 181.53972107 231.65446197 181.46840096 237.53228951 C181.44554337 239.58473858 181.42929884 241.6371667 181.41368103 243.68968201 C181.39344627 245.54279747 181.39344627 245.54279747 181.37280273 247.43334961 C181.36329086 248.52618759 181.35377899 249.61902557 181.34397888 250.74497986 C181.19921875 253.203125 181.19921875 253.203125 180.19921875 254.203125 C178.14123066 254.30192832 176.0797829 254.32868212 174.01942444 254.32896614 C173.3634812 254.33041958 172.70753796 254.33187302 172.03171766 254.33337051 C169.80636014 254.337056 167.58107004 254.33353238 165.35571289 254.33010864 C163.75513962 254.33125946 162.15456662 254.33284671 160.55399418 254.33483589 C156.1343664 254.33903467 151.71476004 254.33693606 147.29513216 254.33384967 C142.53707511 254.33159801 137.77902188 254.33507401 133.02096558 254.33782959 C123.69149166 254.3422888 114.36202576 254.34131015 105.03255153 254.33841695 C97.4539208 254.33616351 89.87529234 254.33585014 82.29666138 254.33694077 C80.68203745 254.33717061 80.68203745 254.33717061 79.03479487 254.33740511 C76.84844613 254.33772482 74.66209739 254.33804903 72.47574866 254.3383777 C51.94832975 254.34123293 31.42091529 254.33794479 10.89349711 254.33257733 C-6.74060051 254.32810926 -24.37469156 254.32888518 -42.00878906 254.33349609 C-62.46005264 254.33884109 -82.91131231 254.34095824 -103.36257648 254.33788383 C-105.54112561 254.33756526 -107.71967475 254.33725089 -109.89822388 254.33694077 C-110.97026296 254.33678649 -112.04230204 254.33663221 -113.14682716 254.33647326 C-120.72108519 254.33560788 -128.29534074 254.33707143 -135.86959839 254.33942032 C-145.09329278 254.34221769 -154.31697866 254.34148139 -163.54067206 254.33613957 C-168.25157754 254.33350171 -172.96246879 254.33249893 -177.67337418 254.33578873 C-181.97871387 254.33874995 -186.28402605 254.33716181 -190.58936322 254.33181117 C-192.15394346 254.33068624 -193.71852598 254.33127984 -195.28310478 254.33368696 C-197.3957661 254.33669011 -199.50833082 254.33364737 -201.62098694 254.32896614 C-202.79871705 254.32880379 -203.97644716 254.32864144 -205.18986607 254.32847416 C-207.80078125 254.203125 -207.80078125 254.203125 -208.80078125 253.203125 C-208.90893982 251.59663985 -208.9476267 249.98543277 -208.95899963 248.37535095 C-208.96878845 247.33062119 -208.97857727 246.28589142 -208.98866272 245.20950317 C-208.99729591 243.47565872 -208.99729591 243.47565872 -209.00610352 241.70678711 C-209.01600311 240.49719833 -209.02590271 239.28760956 -209.03610229 238.04136658 C-209.06235281 234.71509078 -209.08418881 231.38883979 -209.10410428 228.0625236 C-209.1259262 224.58979721 -209.15333339 221.11711513 -209.18016052 217.64442444 C-209.23013888 211.06419522 -209.27505855 204.48394148 -209.31818289 197.90366417 C-209.36751141 190.41403241 -209.42244575 182.9244451 -209.47786248 175.4348563 C-209.59176143 160.02432024 -209.69858315 144.61374336 -209.80078125 129.203125 C-211.85638188 132.63439114 -213.90345479 136.07067405 -215.94921875 139.5078125 C-216.80858032 140.94193481 -216.80858032 140.94193481 -217.68530273 142.4050293 C-236.11671271 173.42884127 -249.29195531 208.70788506 -256.25537109 244.08520508 C-256.43277832 244.97876709 -256.61018555 245.8723291 -256.79296875 246.79296875 C-256.9410498 247.57534912 -257.08913086 248.35772949 -257.24169922 249.16381836 C-257.80078125 251.203125 -257.80078125 251.203125 -259.80078125 254.203125 C-260.79078125 253.873125 -261.78078125 253.543125 -262.80078125 253.203125 C-262.33294292 244.91570324 -260.47250333 237.19417372 -258.30078125 229.203125 C-258.1243811 228.55072845 -257.94798096 227.89833191 -257.76623535 227.22616577 C-247.83878071 190.66787613 -233.18306797 155.57252188 -211.80078125 124.203125 C-211.06939941 123.12369629 -211.06939941 123.12369629 -210.32324219 122.02246094 C-203.67398747 112.25433756 -196.62594584 103.05414958 -188.80078125 94.203125 C-188.09953125 93.39101562 -187.39828125 92.57890625 -186.67578125 91.7421875 C-176.34536545 79.96394827 -165.23082616 68.75634729 -152.80078125 59.203125 C-151.82238281 58.419375 -150.84398437 57.635625 -149.8359375 56.828125 C-108.4416582 23.87610003 -53.40431049 0.2659957 0 0 Z M-15.80078125 5.203125 C-14.17977472 9.4059766 -12.31239322 13.47749464 -10.39453125 17.55078125 C-10.06916382 18.24449326 -9.74379639 18.93820526 -9.40856934 19.65293884 C-8.7233999 21.11309374 -8.03755553 22.57293211 -7.35107422 24.0324707 C-6.30286989 26.2611841 -5.25672405 28.49085436 -4.2109375 30.72070312 C-3.54308872 32.14328549 -2.8751239 33.5658134 -2.20703125 34.98828125 C-1.89552124 35.65191177 -1.58401123 36.3155423 -1.26306152 36.99928284 C0.18965728 40.08680841 1.67302853 43.15074457 3.19921875 46.203125 C22.99921875 46.203125 42.79921875 46.203125 63.19921875 46.203125 C63.19921875 72.603125 63.19921875 99.003125 63.19921875 126.203125 C100.81921875 126.203125 138.43921875 126.203125 177.19921875 126.203125 C174.06274568 101.11134044 160.7014838 77.02098319 144.19921875 58.203125 C143.50441406 57.37554687 142.80960938 56.54796875 142.09375 55.6953125 C115.34690379 24.61245661 73.32741326 7.93977483 33.13549805 4.35986328 C26.96616366 4.03054486 20.78960931 4.05640776 14.61328125 4.07275391 C12.20436307 4.07811355 9.79563128 4.07278163 7.38671875 4.06640625 C-0.41260397 4.06338794 -8.04978297 4.2186232 -15.80078125 5.203125 Z M-164.08203125 74.6953125 C-166.00644676 76.47041991 -167.92307976 78.14770358 -169.9453125 79.80078125 C-172.21910507 81.71375311 -174.09756191 83.49980317 -175.98828125 85.765625 C-178.88896898 89.18156647 -181.91140399 92.44499491 -184.98828125 95.703125 C-191.05739356 102.21119826 -196.30256158 109.29765525 -201.51904297 116.49560547 C-202.68268114 118.04579316 -203.94255993 119.52255481 -205.2109375 120.98828125 C-205.73558594 121.71917969 -206.26023438 122.45007813 -206.80078125 123.203125 C-206.47078125 124.193125 -206.14078125 125.183125 -205.80078125 126.203125 C-170.49078125 126.203125 -135.18078125 126.203125 -98.80078125 126.203125 C-98.80078125 99.803125 -98.80078125 73.403125 -98.80078125 46.203125 C-80.65078125 46.203125 -62.50078125 46.203125 -43.80078125 46.203125 C-41.16078125 40.923125 -38.52078125 35.643125 -35.80078125 30.203125 C-33.81835856 26.45212697 -31.82046865 22.7142999 -29.78515625 18.9921875 C-27.7106638 15.13745685 -26.04986957 11.4237287 -24.80078125 7.203125 C-73.48900393 6.08323665 -129.9581867 42.58439136 -164.08203125 74.6953125 Z M181.19921875 155.203125 C181.19921875 157.183125 181.19921875 159.163125 181.19921875 161.203125 C181.52921875 161.203125 181.85921875 161.203125 182.19921875 161.203125 C182.19921875 159.223125 182.19921875 157.243125 182.19921875 155.203125 C181.86921875 155.203125 181.53921875 155.203125 181.19921875 155.203125 Z " fill="#010305" transform="translate(292.80078125,112.796875)"/>
<path d="M0 0 C1.37468697 -0.00855011 1.37468697 -0.00855011 2.77714539 -0.01727295 C4.71087512 -0.02666691 6.64462047 -0.03323445 8.57836914 -0.03710938 C11.46596118 -0.04672267 14.35281153 -0.07776178 17.24023438 -0.109375 C33.87681865 -0.20524385 49.93341252 1.62157221 66.01171875 6.015625 C67.45623413 6.40355225 67.45623413 6.40355225 68.92993164 6.79931641 C95.68673067 14.19208274 120.94462326 28.07797599 140.19921875 48.203125 C140.98296875 48.96625 141.76671875 49.729375 142.57421875 50.515625 C143.44046875 51.4025 144.30671875 52.289375 145.19921875 53.203125 C146.13314453 54.12544922 146.13314453 54.12544922 147.0859375 55.06640625 C169.35274201 78.21268957 185.37915917 115.65565844 185.44921875 147.953125 C185.3876293 149.70402511 185.31406497 151.45491026 185.19921875 153.203125 C184.86921875 153.203125 184.53921875 153.203125 184.19921875 153.203125 C183.86921875 151.223125 183.53921875 149.243125 183.19921875 147.203125 C183.20969238 147.8422583 183.22016602 148.4813916 183.23095703 149.13989258 C183.2731037 152.09842835 183.2987282 155.05690061 183.32421875 158.015625 C183.34097656 159.02044922 183.35773438 160.02527344 183.375 161.06054688 C183.53995222 186.71061758 173.16449947 210.30341132 155.88671875 228.953125 C146.29402095 237.98550167 133.89876241 245.55058424 120.94921875 248.390625 C117.06618406 248.19647327 115.34725297 247.45746746 111.96484375 245.69140625 C111.07055664 245.22903564 110.17626953 244.76666504 109.25488281 244.2902832 C108.57651367 243.931521 107.89814453 243.57275879 107.19921875 243.203125 C107.20143936 242.15298721 107.20365997 241.10284943 107.20594788 240.02088928 C107.2261789 230.14666919 107.2411907 220.27245328 107.25103092 210.3982172 C107.25625985 205.32121482 107.26335767 200.24422911 107.2746582 195.16723633 C107.28548674 190.27191948 107.29149551 185.37661871 107.29409599 180.48129082 C107.2959503 178.60929549 107.29957103 176.73730109 107.30494881 174.86531258 C107.31215879 172.25271801 107.31320971 169.64019073 107.31274414 167.02758789 C107.31633942 166.24572113 107.31993469 165.46385437 107.32363892 164.65829468 C107.64205837 161.13789681 107.64205837 161.13789681 106.19921875 158.203125 C106.19921875 161.503125 106.19921875 164.803125 106.19921875 168.203125 C105.53921875 168.203125 104.87921875 168.203125 104.19921875 168.203125 C104.52453583 168.72122742 104.84985291 169.23932983 105.18502808 169.77313232 C106.52647668 172.98723235 106.43879521 175.6008703 106.42626953 179.08300781 C106.42656158 179.76634186 106.42685364 180.4496759 106.42715454 181.15371704 C106.42576499 183.40469206 106.41022177 185.65533304 106.39453125 187.90625 C106.39079978 189.46994852 106.38795344 191.03364938 106.38595581 192.59735107 C106.37832989 196.70734138 106.35869039 200.8171897 106.33654785 204.92712402 C106.31606697 209.12327148 106.3069493 213.31944194 106.296875 217.515625 C106.27544347 225.74485673 106.24132014 233.97397319 106.19921875 242.203125 C91.66442148 235.20842067 83.0619777 219.56048719 76.015625 205.74609375 C74.38060936 202.55693422 72.65553132 199.44419039 70.88671875 196.328125 C67.59800145 190.29731643 63.8851723 183.21137271 65.19921875 176.203125 C67.81592069 171.29998448 70.58243822 167.36461601 75.19921875 164.203125 C70.27372931 166.02738035 67.36352219 170.0962902 64.88671875 174.578125 C64.54640625 175.3825 64.54640625 175.3825 64.19921875 176.203125 C63.53921875 176.203125 62.87921875 176.203125 62.19921875 176.203125 C62.19921875 175.213125 62.19921875 174.223125 62.19921875 173.203125 C61.53921875 173.203125 60.87921875 173.203125 60.19921875 173.203125 C59.93181885 172.53700195 59.66441895 171.87087891 59.38891602 171.18457031 C55.93419133 162.72593619 52.11536469 154.4669378 48.20581055 146.2109375 C47.13241555 143.94403708 46.06295532 141.67531306 44.99414062 139.40625 C44.30100745 137.93739324 43.60765571 136.46863959 42.9140625 135 C42.60041245 134.33522644 42.28676239 133.67045288 41.96360779 132.98553467 C40.04420724 128.93460119 38.06771197 124.91691446 36.04318237 120.91743469 C35.03315841 118.86581324 34.18730426 116.78209264 33.38671875 114.640625 C31.75996487 110.4697843 29.93868203 106.42277402 28.03515625 102.37109375 C27.73033829 101.72113434 27.42552032 101.07117493 27.11146545 100.40151978 C26.46710489 99.02793139 25.8220988 97.65464565 25.17648315 96.28164673 C24.22304299 94.25379624 23.27145605 92.22508791 22.32055664 90.19604492 C20.10732917 85.47385093 17.89224086 80.75253068 15.67602539 76.03173828 C15.35947998 75.35739746 15.04293457 74.68305664 14.71679688 73.98828125 C14.40199371 73.31774719 14.08719055 72.64721313 13.7628479 71.95635986 C13.14036077 70.62818578 12.51921986 69.29937982 11.89950562 67.96990967 C10.41058073 64.77583118 8.90664801 61.59126457 7.36376953 58.42285156 C6.80544434 57.25979492 6.24711914 56.09673828 5.671875 54.8984375 C5.17051025 53.86992676 4.66914551 52.84141602 4.15258789 51.78173828 C3.19921875 49.203125 3.19921875 49.203125 4.19921875 46.203125 C23.66921875 46.203125 43.13921875 46.203125 63.19921875 46.203125 C63.19921875 72.603125 63.19921875 99.003125 63.19921875 126.203125 C69.70382812 126.1309375 76.2084375 126.05875 82.91015625 125.984375 C87.06640512 125.93869354 91.22265448 125.89307083 95.37890625 125.84765625 C101.95508453 125.7757941 108.53126012 125.70373135 115.10742188 125.63037109 C120.41777252 125.5711453 125.7281332 125.51290493 131.03850174 125.45530701 C133.04995728 125.43332479 135.06140917 125.41100587 137.0728569 125.38832092 C142.58251405 125.32630234 148.09215913 125.26961623 153.60198212 125.22445679 C155.35203771 125.21008312 157.10208401 125.1945357 158.85211945 125.17788696 C161.36576688 125.15546664 163.87935545 125.14010591 166.39306641 125.12695312 C167.14158056 125.11939751 167.89009472 125.11184189 168.66129112 125.10405731 C171.78940709 125.09463456 174.20703981 125.20573202 177.19921875 126.203125 C170.74986355 100.74534707 160.62547372 78.06597137 143.19921875 58.203125 C142.12220703 56.92695313 142.12220703 56.92695313 141.0234375 55.625 C135.63267523 49.38205683 129.76872376 44.17868845 123.19921875 39.203125 C122.25820313 38.48511719 121.3171875 37.76710937 120.34765625 37.02734375 C91.3456286 15.93155361 54.93687492 4.91202906 19.16015625 5.10546875 C18.15328766 5.1068837 17.14641907 5.10829865 16.10903931 5.10975647 C12.93073402 5.11530069 9.75250231 5.12784241 6.57421875 5.140625 C4.40364686 5.14564722 2.23307385 5.15020886 0.0625 5.15429688 C-5.22528501 5.16525177 -10.51302787 5.18193324 -15.80078125 5.203125 C-15.47078125 6.523125 -15.14078125 7.843125 -14.80078125 9.203125 C-17.77078125 8.873125 -20.74078125 8.543125 -23.80078125 8.203125 C-24.13078125 8.863125 -24.46078125 9.523125 -24.80078125 10.203125 C-24.80078125 9.213125 -24.80078125 8.223125 -24.80078125 7.203125 C-77.03783449 17.31502558 -125.16913513 39.05487574 -164.1796875 75.79296875 C-166.80078125 78.203125 -166.80078125 78.203125 -169.4453125 80.30078125 C-171.54654128 81.99779355 -173.19850206 83.64124199 -174.92578125 85.703125 C-177.84911248 89.13788134 -180.89165926 92.42382459 -183.98828125 95.703125 C-190.05857324 102.21253998 -195.28878377 109.3053622 -200.52294922 116.49169922 C-201.68458741 118.04750429 -202.91333611 119.55262998 -204.1484375 121.05078125 C-206.00376298 123.01528705 -206.00376298 123.01528705 -205.80078125 125.203125 C-204.54876923 125.20090439 -203.2967572 125.19868378 -202.00680542 125.19639587 C-190.20632693 125.17612196 -178.40585198 125.16113234 -166.60536003 125.15131283 C-160.53865711 125.14609482 -154.47196826 125.13901677 -148.40527344 125.12768555 C-142.55032335 125.11681828 -136.69538679 125.11084 -130.8404274 125.10824776 C-128.6069327 125.10640044 -126.37343874 125.10279313 -124.1399498 125.09739494 C-121.01108959 125.09013363 -117.88228525 125.08913622 -114.75341797 125.08959961 C-113.36913857 125.0842067 -113.36913857 125.0842067 -111.95689392 125.07870483 C-111.09881638 125.0800795 -110.24073883 125.08145416 -109.35665894 125.08287048 C-108.61738096 125.08194869 -107.87810299 125.0810269 -107.11642265 125.08007717 C-104.32331856 125.22849626 -101.55976909 125.74329369 -98.80078125 126.203125 C-98.80078125 99.803125 -98.80078125 73.403125 -98.80078125 46.203125 C-80.98078125 46.203125 -63.16078125 46.203125 -44.80078125 46.203125 C-43.80078125 49.203125 -43.80078125 49.203125 -45.03125 52.1875 C-45.67258858 53.44836683 -46.32592036 54.70317365 -46.98828125 55.953125 C-47.33480743 56.62039612 -47.68133362 57.28766724 -48.0383606 57.97515869 C-50.16721738 62.07154227 -52.30358669 66.16378606 -54.4519043 70.25 C-61.96506312 84.55904276 -69.23546603 98.97963072 -76.42578125 113.453125 C-83.03101344 126.74832358 -89.67247159 140.0106105 -96.64550781 153.11743164 C-100.4844237 160.34974586 -104.08266588 167.70568202 -107.71142578 175.04492188 C-109.64944684 178.9606647 -111.60305754 182.86815535 -113.57275391 186.76806641 C-114.47140876 188.55001144 -115.36640438 190.33380318 -116.25927734 192.11865234 C-122.62367813 204.80626672 -128.90933288 217.09277685 -137.80078125 228.203125 C-138.38988281 228.97269531 -138.97898437 229.74226562 -139.5859375 230.53515625 C-145.65716164 238.04165796 -153.71734276 243.93308714 -162.80078125 247.203125 C-163.60515625 247.595 -164.40953125 247.986875 -165.23828125 248.390625 C-168.84869438 249.53539014 -172.02098432 249.33125371 -175.80078125 249.203125 C-175.80078125 250.523125 -175.80078125 251.843125 -175.80078125 253.203125 C-179.64525325 254.10219219 -183.21585283 254.33188791 -187.16015625 254.3359375 C-188.35769531 254.33722656 -189.55523437 254.33851563 -190.7890625 254.33984375 C-192.03042969 254.33597656 -193.27179688 254.33210937 -194.55078125 254.328125 C-195.80761719 254.33199219 -197.06445312 254.33585938 -198.359375 254.33984375 C-199.55175781 254.33855469 -200.74414062 254.33726562 -201.97265625 254.3359375 C-203.06674805 254.33480957 -204.16083984 254.33368164 -205.28808594 254.33251953 C-207.80078125 254.203125 -207.80078125 254.203125 -208.80078125 253.203125 C-208.90893982 251.59663985 -208.9476267 249.98543277 -208.95899963 248.37535095 C-208.96878845 247.33062119 -208.97857727 246.28589142 -208.98866272 245.20950317 C-208.99729591 243.47565872 -208.99729591 243.47565872 -209.00610352 241.70678711 C-209.01600311 240.49719833 -209.02590271 239.28760956 -209.03610229 238.04136658 C-209.06235281 234.71509078 -209.08418881 231.38883979 -209.10410428 228.0625236 C-209.1259262 224.58979721 -209.15333339 221.11711513 -209.18016052 217.64442444 C-209.23013888 211.06419522 -209.27505855 204.48394148 -209.31818289 197.90366417 C-209.36751141 190.41403241 -209.42244575 182.9244451 -209.47786248 175.4348563 C-209.59176143 160.02432024 -209.69858315 144.61374336 -209.80078125 129.203125 C-211.85638188 132.63439114 -213.90345479 136.07067405 -215.94921875 139.5078125 C-216.80858032 140.94193481 -216.80858032 140.94193481 -217.68530273 142.4050293 C-236.11671271 173.42884127 -249.29195531 208.70788506 -256.25537109 244.08520508 C-256.43277832 244.97876709 -256.61018555 245.8723291 -256.79296875 246.79296875 C-256.9410498 247.57534912 -257.08913086 248.35772949 -257.24169922 249.16381836 C-257.80078125 251.203125 -257.80078125 251.203125 -259.80078125 254.203125 C-260.79078125 253.873125 -261.78078125 253.543125 -262.80078125 253.203125 C-262.33294292 244.91570324 -260.47250333 237.19417372 -258.30078125 229.203125 C-258.1243811 228.55072845 -257.94798096 227.89833191 -257.76623535 227.22616577 C-247.83878071 190.66787613 -233.18306797 155.57252188 -211.80078125 124.203125 C-211.06939941 123.12369629 -211.06939941 123.12369629 -210.32324219 122.02246094 C-203.67398747 112.25433756 -196.62594584 103.05414958 -188.80078125 94.203125 C-188.09953125 93.39101562 -187.39828125 92.57890625 -186.67578125 91.7421875 C-176.34536545 79.96394827 -165.23082616 68.75634729 -152.80078125 59.203125 C-151.82238281 58.419375 -150.84398437 57.635625 -149.8359375 56.828125 C-108.4416582 23.87610003 -53.40431049 0.2659957 0 0 Z M181.19921875 155.203125 C181.19921875 157.183125 181.19921875 159.163125 181.19921875 161.203125 C181.52921875 161.203125 181.85921875 161.203125 182.19921875 161.203125 C182.19921875 159.223125 182.19921875 157.243125 182.19921875 155.203125 C181.86921875 155.203125 181.53921875 155.203125 181.19921875 155.203125 Z " fill="#26BCD6" transform="translate(292.80078125,112.796875)"/>
<path d="M0 0 C33.33 0 66.66 0 101 0 C106.17171871 9.69697258 111.12934264 19.28076154 115.6875 29.25 C116.50057617 31.0134375 116.50057617 31.0134375 117.33007812 32.8125 C120.57764972 39.86392205 123.7973282 46.92807967 127 54 C127.55530396 55.22614014 127.55530396 55.22614014 128.12182617 56.47705078 C129.16888368 58.79528198 130.21022219 61.11599608 131.25 63.4375 C131.600625 64.21287109 131.95125 64.98824219 132.3125 65.78710938 C132.64765625 66.53669922 132.9828125 67.28628906 133.328125 68.05859375 C133.6262207 68.72173584 133.92431641 69.38487793 134.23144531 70.06811523 C136.29262801 75.24922663 136.73336807 80.48227831 136 86 C132.99634984 91.40657029 129.25119756 93.24245538 123.515625 95.3203125 C120.16520421 96.22555042 117.44592923 96.29964602 114 96 C114 96.66 114 97.32 114 98 C111.69 98 109.38 98 107 98 C106.67 98.99 106.34 99.98 106 101 C68.05 101 30.1 101 -9 101 C-9 100.01 -9 99.02 -9 98 C-8.01 98 -7.02 98 -6 98 C-6 97.34 -6 96.68 -6 96 C-6.67804688 95.98582031 -7.35609375 95.97164063 -8.0546875 95.95703125 C-15.11404686 95.59526353 -21.24989498 94.3151412 -27 90 C-32.05663298 83.87048141 -31.97074103 77.81610096 -31.30908203 70.24267578 C-29.57902663 57.68952501 -23.01022744 38.01022744 -14 29 C-13.45708028 27.70466436 -12.96574439 26.3875428 -12.5 25.0625 C-8.94100192 16.43192966 -4.34801702 8.26123234 0 0 Z " fill="#28BED8" transform="translate(211,266)"/>
<path d="M0 0 C0.91989212 -0.00137466 1.83978424 -0.00274933 2.78755188 -0.00416565 C3.79959183 -0.00057037 4.81163177 0.0030249 5.8543396 0.00672913 C6.91777084 0.0065831 7.98120209 0.00643707 9.07685852 0.00628662 C12.60475682 0.00698533 16.13260283 0.01477581 19.66049194 0.02259827 C22.10144014 0.02446259 24.5423887 0.02588643 26.9833374 0.02688599 C33.41790799 0.03071 39.85245612 0.04053932 46.28701782 0.05158997 C52.84900611 0.06180656 59.41099801 0.06638414 65.97299194 0.07142639 C78.85581404 0.08216167 91.73862055 0.09904537 104.62142944 0.12025452 C104.72389971 4.44038971 104.78554343 8.76020799 104.84017944 13.08119202 C104.8841687 14.90445007 104.8841687 14.90445007 104.92904663 16.76454163 C105.02311603 26.69222328 102.98231005 33.03355239 97.73275757 41.27650452 C95.81484712 44.4584157 94.38387661 47.85745184 92.87142944 51.24525452 C84.62686241 69.10430016 75.19635871 86.95636922 62.62142944 102.12025452 C61.47674194 103.66712952 61.47674194 103.66712952 60.30892944 105.24525452 C54.54436815 111.4119945 47.56622327 116.26012874 39.62142944 119.12025452 C38.41486694 119.70806702 38.41486694 119.70806702 37.18392944 120.30775452 C33.57351632 121.45251965 30.40122637 121.24838323 26.62142944 121.12025452 C26.62142944 122.44025452 26.62142944 123.76025452 26.62142944 125.12025452 C22.77695744 126.0193217 19.20635786 126.24901742 15.26205444 126.25306702 C14.06451538 126.25435608 12.86697632 126.25564514 11.63314819 126.25697327 C10.39178101 126.25310608 9.15041382 126.24923889 7.87142944 126.24525452 C6.61459351 126.2491217 5.35775757 126.25298889 4.06283569 126.25697327 C2.87045288 126.2556842 1.67807007 126.25439514 0.44955444 126.25306702 C-0.64453735 126.25193909 -1.73862915 126.25081116 -2.86587524 126.24964905 C-5.37857056 126.12025452 -5.37857056 126.12025452 -6.37857056 125.12025452 C-6.47457192 123.51336252 -6.50044945 121.90223682 -6.49882507 120.29248047 C-6.50019974 119.2477507 -6.5015744 118.20302094 -6.50299072 117.12663269 C-6.49939545 115.97073639 -6.49580017 114.81484009 -6.49209595 113.62391663 C-6.49224197 112.41432785 -6.492388 111.20473907 -6.49253845 109.95849609 C-6.49195949 106.63219101 -6.48693029 103.30594733 -6.47996449 99.97965312 C-6.47373034 96.50695522 -6.47312711 93.03425658 -6.47193909 89.56155396 C-6.46882595 82.98129259 -6.46061281 76.40104776 -6.4505896 69.82079369 C-6.4394279 62.3311934 -6.43391787 54.84159234 -6.42889416 47.35198581 C-6.41843018 31.94139912 -6.40083109 16.53082895 -6.37857056 1.12025452 C-4.02115513 -0.05845319 -2.62814657 -0.00302086 0 0 Z " fill="#28BED8" transform="translate(90.37857055664063,240.87974548339844)"/>
<path d="M0 0 C1.37468697 -0.00855011 1.37468697 -0.00855011 2.77714539 -0.01727295 C4.71087512 -0.02666691 6.64462047 -0.03323445 8.57836914 -0.03710938 C11.46596118 -0.04672267 14.35281153 -0.07776178 17.24023438 -0.109375 C33.87681865 -0.20524385 49.93341252 1.62157221 66.01171875 6.015625 C67.45623413 6.40355225 67.45623413 6.40355225 68.92993164 6.79931641 C95.68673067 14.19208274 120.94462326 28.07797599 140.19921875 48.203125 C140.98296875 48.96625 141.76671875 49.729375 142.57421875 50.515625 C143.44046875 51.4025 144.30671875 52.289375 145.19921875 53.203125 C146.13314453 54.12544922 146.13314453 54.12544922 147.0859375 55.06640625 C167.72089675 76.51639082 179.27006147 106.27675467 184.19921875 135.203125 C183.53921875 135.203125 182.87921875 135.203125 182.19921875 135.203125 C181.86921875 136.193125 181.53921875 137.183125 181.19921875 138.203125 C180.53921875 134.243125 179.87921875 130.283125 179.19921875 126.203125 C178.53921875 126.203125 177.87921875 126.203125 177.19921875 126.203125 C177.06459229 125.67170898 176.92996582 125.14029297 176.79125977 124.59277344 C170.3796861 99.73428525 160.2195666 77.6033091 143.19921875 58.203125 C142.12220703 56.92695313 142.12220703 56.92695313 141.0234375 55.625 C135.63267523 49.38205683 129.76872376 44.17868845 123.19921875 39.203125 C122.25820313 38.48511719 121.3171875 37.76710937 120.34765625 37.02734375 C91.3456286 15.93155361 54.93687492 4.91202906 19.16015625 5.10546875 C18.15328766 5.1068837 17.14641907 5.10829865 16.10903931 5.10975647 C12.93073402 5.11530069 9.75250231 5.12784241 6.57421875 5.140625 C4.40364686 5.14564722 2.23307385 5.15020886 0.0625 5.15429688 C-5.22528501 5.16525177 -10.51302787 5.18193324 -15.80078125 5.203125 C-15.47078125 6.523125 -15.14078125 7.843125 -14.80078125 9.203125 C-17.77078125 8.873125 -20.74078125 8.543125 -23.80078125 8.203125 C-24.13078125 8.863125 -24.46078125 9.523125 -24.80078125 10.203125 C-24.80078125 9.213125 -24.80078125 8.223125 -24.80078125 7.203125 C-77.03783449 17.31502558 -125.16913513 39.05487574 -164.1796875 75.79296875 C-166.80078125 78.203125 -166.80078125 78.203125 -169.4453125 80.30078125 C-171.54654128 81.99779355 -173.19850206 83.64124199 -174.92578125 85.703125 C-177.84911248 89.13788134 -180.89165926 92.42382459 -183.98828125 95.703125 C-190.05857324 102.21253998 -195.28878377 109.3053622 -200.52294922 116.49169922 C-201.68458741 118.04750429 -202.91333611 119.55262998 -204.1484375 121.05078125 C-206.00376298 123.01528705 -206.00376298 123.01528705 -205.80078125 125.203125 C-204.54876923 125.20090439 -203.2967572 125.19868378 -202.00680542 125.19639587 C-190.20632693 125.17612196 -178.40585198 125.16113234 -166.60536003 125.15131283 C-160.53865711 125.14609482 -154.47196826 125.13901677 -148.40527344 125.12768555 C-142.55032335 125.11681828 -136.69538679 125.11084 -130.8404274 125.10824776 C-128.6069327 125.10640044 -126.37343874 125.10279313 -124.1399498 125.09739494 C-121.01108959 125.09013363 -117.88228525 125.08913622 -114.75341797 125.08959961 C-113.36913857 125.0842067 -113.36913857 125.0842067 -111.95689392 125.07870483 C-111.09881638 125.0800795 -110.24073883 125.08145416 -109.35665894 125.08287048 C-108.61738096 125.08194869 -107.87810299 125.0810269 -107.11642265 125.08007717 C-104.32331856 125.22849626 -101.55976909 125.74329369 -98.80078125 126.203125 C-98.80078125 99.803125 -98.80078125 73.403125 -98.80078125 46.203125 C-80.98078125 46.203125 -63.16078125 46.203125 -44.80078125 46.203125 C-43.80078125 49.203125 -43.80078125 49.203125 -45.03125 52.1875 C-45.67258457 53.44836887 -46.32591724 54.7031753 -46.98828125 55.953125 C-47.33489807 56.62053207 -47.68151489 57.28793915 -48.03863525 57.97557068 C-50.16627249 62.06943759 -52.30112566 66.15933629 -54.44750977 70.2434082 C-61.99460034 84.62128472 -69.3123464 99.10532749 -76.55078125 113.640625 C-77.63261928 115.80934119 -78.71465012 117.9779612 -79.796875 120.14648438 C-81.86233908 124.28579242 -83.92679287 128.42560132 -85.99023438 132.56591797 C-89.58690284 139.78174554 -93.19271094 146.99299339 -96.80078125 154.203125 C-97.13078125 154.203125 -97.46078125 154.203125 -97.80078125 154.203125 C-97.80078125 145.623125 -97.80078125 137.043125 -97.80078125 128.203125 C-133.77078125 128.203125 -169.74078125 128.203125 -206.80078125 128.203125 C-206.80078125 169.123125 -206.80078125 210.043125 -206.80078125 252.203125 C-207.13078125 252.203125 -207.46078125 252.203125 -207.80078125 252.203125 C-208.29578125 191.318125 -208.29578125 191.318125 -208.80078125 129.203125 C-233.91098032 160.59087384 -248.59621607 205.17321321 -256.25537109 244.08520508 C-256.43277832 244.97876709 -256.61018555 245.8723291 -256.79296875 246.79296875 C-256.9410498 247.57534912 -257.08913086 248.35772949 -257.24169922 249.16381836 C-257.80078125 251.203125 -257.80078125 251.203125 -259.80078125 254.203125 C-260.79078125 253.873125 -261.78078125 253.543125 -262.80078125 253.203125 C-262.33294292 244.91570324 -260.47250333 237.19417372 -258.30078125 229.203125 C-258.1243811 228.55072845 -257.94798096 227.89833191 -257.76623535 227.22616577 C-247.83878071 190.66787613 -233.18306797 155.57252188 -211.80078125 124.203125 C-211.06939941 123.12369629 -211.06939941 123.12369629 -210.32324219 122.02246094 C-203.67398747 112.25433756 -196.62594584 103.05414958 -188.80078125 94.203125 C-188.09953125 93.39101562 -187.39828125 92.57890625 -186.67578125 91.7421875 C-176.34536545 79.96394827 -165.23082616 68.75634729 -152.80078125 59.203125 C-151.82238281 58.419375 -150.84398437 57.635625 -149.8359375 56.828125 C-108.4416582 23.87610003 -53.40431049 0.2659957 0 0 Z " fill="#222828" transform="translate(292.80078125,112.796875)"/>
<path d="M0 0 C23.76 0 47.52 0 72 0 C72 35.23966942 72 35.23966942 66 46 C65.67322266 46.59619141 65.34644531 47.19238281 65.00976562 47.80664062 C58.38733978 59.65132228 49.39760675 70.50818634 38 78 C37.07574219 78.64582031 36.15148437 79.29164063 35.19921875 79.95703125 C28.07642519 84.50553068 18.62753375 89.43137669 10 89 C6.7 87.35 3.4 85.7 0 84 C0 56.28 0 28.56 0 0 Z " fill="#25BBD6" transform="translate(400,272)"/>
<path d="M0 0 C3.28327093 2.7127846 4.76973558 6.29968717 6.51953125 10.078125 C6.85474792 10.78908325 7.1899646 11.5000415 7.53533936 12.23254395 C8.63433473 14.56865876 9.72357109 16.90917807 10.8125 19.25 C11.57444858 20.87548486 12.33674072 22.50080872 13.09936523 24.12597656 C18.31654439 35.26986629 23.40530468 46.4697288 28.43557739 57.69900513 C33.05933737 68.01829449 37.78776503 78.27301053 43.203125 88.20703125 C44 90 44 90 44 93 C14.63 93 -14.74 93 -45 93 C-42.57298462 86.93246155 -40.22448482 81.19300721 -37.25 75.4375 C-34.40060476 69.83511762 -31.65325166 64.19785957 -29 58.5 C-24.12878753 48.07458379 -19.04538959 37.77330166 -13.58959961 27.640625 C-9.42770613 19.90774049 -5.72492111 12.0914569 -2.3125 4 C-1 1 -1 1 0 0 Z " fill="#21B4CE" transform="translate(262,161)"/>
<path d="M0 0 C38.61 0 77.22 0 117 0 C117 9.57 117 19.14 117 29 C78.39 29 39.78 29 0 29 C0 19.43 0 9.86 0 0 Z " fill="#25BCD6" transform="translate(355,241)"/>
<path d="M0 0 C19.47 0 38.94 0 59 0 C59 26.4 59 52.8 59 80 C68.75691406 79.89171875 68.75691406 79.89171875 78.7109375 79.78125 C82.86718637 79.73556854 87.02343573 79.68994583 91.1796875 79.64453125 C97.75586578 79.5726691 104.33204137 79.50060635 110.90820312 79.42724609 C116.21855377 79.3680203 121.52891445 79.30977993 126.83928299 79.25218201 C128.85073853 79.23019979 130.86219042 79.20788087 132.87363815 79.18519592 C138.38622502 79.12314436 143.89879952 79.06649835 149.41155243 79.02133179 C151.14793675 79.00702198 152.88431136 78.99148376 154.62067413 78.97476196 C157.10339699 78.95229049 159.58605997 78.93696854 162.06884766 78.92382812 C163.16648217 78.9124947 163.16648217 78.9124947 164.28629112 78.90093231 C167.98937684 78.88967209 171.4000645 79.11049906 175 80 C175.99 82.97 176.98 85.94 178 89 C178.66 89 179.32 89 180 89 C180.95619733 92.99795892 181.1039592 96.70803922 181.0625 100.8125 C181.05347656 101.97394531 181.04445313 103.13539063 181.03515625 104.33203125 C181.01775391 105.65267578 181.01775391 105.65267578 181 107 C180.67 107 180.34 107 180 107 C179.67 105.02 179.34 103.04 179 101 C179.01047363 101.6391333 179.02094727 102.2782666 179.03173828 102.93676758 C179.07388495 105.89530335 179.09950945 108.85377561 179.125 111.8125 C179.14175781 112.81732422 179.15851563 113.82214844 179.17578125 114.85742188 C179.21964423 121.67811578 178.90617467 128.40836802 177 135 C176.34 135.66 175.68 136.32 175 137 C175 128.75 175 120.5 175 112 C150.91 112 126.82 112 102 112 C102 115.3 102 118.6 102 122 C101.34 122 100.68 122 100 122 C100.32531708 122.51810242 100.65063416 123.03620483 100.98580933 123.57000732 C102.32725793 126.78410735 102.23957646 129.3977453 102.22705078 132.87988281 C102.22734283 133.56321686 102.22763489 134.2465509 102.22793579 134.95059204 C102.22654624 137.20156706 102.21100302 139.45220804 102.1953125 141.703125 C102.19158103 143.26682352 102.18873469 144.83052438 102.18673706 146.39422607 C102.17911114 150.50421638 102.15947164 154.6140647 102.1373291 158.72399902 C102.11684822 162.92014648 102.10773055 167.11631694 102.09765625 171.3125 C102.07622472 179.54173173 102.04210139 187.77084819 102 196 C87.46520273 189.00529567 78.86275895 173.35736219 71.81640625 159.54296875 C70.18139061 156.35380922 68.45631257 153.24106539 66.6875 150.125 C63.3987827 144.09419143 59.68595355 137.00824771 61 130 C63.61670194 125.09685948 66.38321947 121.16149101 71 118 C66.07451056 119.82425535 63.16430344 123.8931652 60.6875 128.375 C60.3471875 129.179375 60.3471875 129.179375 60 130 C59.34 130 58.68 130 58 130 C58 129.01 58 128.02 58 127 C57.34 127 56.68 127 56 127 C56.33 85.75 56.66 44.5 57 2 C28.29 2.495 28.29 2.495 -1 3 C-0.67 2.01 -0.34 1.02 0 0 Z M58 82 C58 91.57 58 101.14 58 111 C96.61 111 135.22 111 175 111 C175 101.43 175 91.86 175 82 C136.39 82 97.78 82 58 82 Z M177 109 C177 110.98 177 112.96 177 115 C177.33 115 177.66 115 178 115 C178 113.02 178 111.04 178 109 C177.67 109 177.34 109 177 109 Z " fill="#408791" transform="translate(297,159)"/>
<path d="M0 0 C33.33 0 66.66 0 101 0 C109 15 109 15 111 22 C92.85 22 74.7 22 56 22 C56 47.41 56 72.82 56 99 C81.245 98.505 81.245 98.505 107 98 C106.505 99.485 106.505 99.485 106 101 C68.05 101 30.1 101 -9 101 C-9 100.01 -9 99.02 -9 98 C-5.74347887 96.91449296 -3.48249114 96.9147579 -0.05981445 96.97827148 C1.79734192 97.00890686 1.79734192 97.00890686 3.6920166 97.04016113 C5.64464417 97.08022278 5.64464417 97.08022278 7.63671875 97.12109375 C8.8328479 97.14175903 10.02897705 97.16242432 11.26135254 97.18371582 C15.73683966 97.2625809 20.21216178 97.35059469 24.6875 97.4375 C34.690625 97.623125 44.69375 97.80875 55 98 C55 72.92 55 47.84 55 22 C33.55 22 12.1 22 -10 22 C-9 17 -9 17 0 0 Z " fill="#227988" transform="translate(211,266)"/>
<path d="M0 0 C17.16 0 34.32 0 52 0 C51.01904541 4.90477297 49.34402377 8.42449874 46.98046875 12.7265625 C42.1677512 21.68103479 37.58351043 30.73782929 33.05078125 39.8359375 C32.33676309 41.26744666 31.62272279 42.69894478 30.90866089 44.13043213 C28.70790236 48.544274 26.50997918 52.95952476 24.3125 57.375 C21.74267602 62.53851543 19.17141477 67.70130585 16.5967617 72.86241531 C15.58546306 74.89135633 14.57663146 76.92150995 13.56794739 78.95175171 C9.53210872 87.0550192 5.34315172 95.05672602 1 103 C0.67 103 0.34 103 0 103 C0 69.01 0 35.02 0 0 Z " fill="#26BAD3" transform="translate(196,161)"/>
<path d="M0 0 C17.82 0 35.64 0 54 0 C54 0.99 54 1.98 54 3 C36.84 2.67 19.68 2.34 2 2 C2.14308594 13.22644531 2.14308594 13.22644531 2.2890625 24.6796875 C2.34486027 29.41014909 2.40006557 34.1406026 2.453125 38.87109375 C2.53747246 46.38599006 2.62405904 53.90081536 2.72363281 61.41552734 C2.80373913 67.47137814 2.87409276 73.52726968 2.93757248 79.5833168 C2.96357419 81.89830859 2.99314046 84.21326307 3.02626419 86.52816391 C3.07192124 89.76077572 3.10510885 92.9932859 3.13525391 96.22607422 C3.1517952 97.19136047 3.16833649 98.15664673 3.18537903 99.15118408 C3.19104385 100.02900543 3.19670868 100.90682678 3.20254517 101.81124878 C3.2117631 102.57633696 3.22098103 103.34142513 3.23047829 104.1296978 C3 106 3 106 1 108 C1 99.42 1 90.84 1 82 C-34.97 82 -70.94 82 -108 82 C-108 122.92 -108 163.84 -108 206 C-108.33 206 -108.66 206 -109 206 C-109.495 145.115 -109.495 145.115 -110 83 C-135.11019907 114.38774884 -149.79543482 158.97008821 -157.45458984 197.88208008 C-157.63199707 198.77564209 -157.8094043 199.6692041 -157.9921875 200.58984375 C-158.14026855 201.37222412 -158.28834961 202.15460449 -158.44091797 202.96069336 C-159 205 -159 205 -161 208 C-161.99 207.67 -162.98 207.34 -164 207 C-163.53216167 198.71257824 -161.67172208 190.99104872 -159.5 183 C-159.32359985 182.34760345 -159.14719971 181.69520691 -158.9654541 181.02304077 C-149.03799946 144.46475113 -134.38228672 109.36939688 -113 78 C-112.26861816 76.92057129 -112.26861816 76.92057129 -111.52246094 75.81933594 C-106.28561589 68.12612057 -100.87999976 60.60439401 -94.9375 53.4375 C-94.48439453 52.88288086 -94.03128906 52.32826172 -93.56445312 51.75683594 C-92.27734375 50.24609375 -92.27734375 50.24609375 -90 48 C-89.01 48 -88.02 48 -87 48 C-90.96 52.455 -90.96 52.455 -95 57 C-94.34 57.66 -93.68 58.32 -93 59 C-94.58272015 61.06297302 -96.16615676 63.12538949 -97.75 65.1875 C-98.1934375 65.76564453 -98.636875 66.34378906 -99.09375 66.93945312 C-99.53203125 67.50986328 -99.9703125 68.08027344 -100.421875 68.66796875 C-100.85435547 69.23177246 -101.28683594 69.79557617 -101.73242188 70.37646484 C-102.90192797 71.87438771 -104.11332432 73.33935157 -105.328125 74.80078125 C-107.20173027 76.80493374 -107.20173027 76.80493374 -107 79 C-105.74798798 78.99777939 -104.49597595 78.99555878 -103.20602417 78.99327087 C-91.40554568 78.97299696 -79.60507073 78.95800734 -67.80457878 78.94818783 C-61.73787586 78.94296982 -55.67118701 78.93589177 -49.60449219 78.92456055 C-43.7495421 78.91369328 -37.89460554 78.907715 -32.03964615 78.90512276 C-29.80615145 78.90327544 -27.57265749 78.89966813 -25.33916855 78.89426994 C-22.21030834 78.88700863 -19.081504 78.88601122 -15.95263672 78.88647461 C-14.56835732 78.8810817 -14.56835732 78.8810817 -13.15611267 78.87557983 C-12.29803513 78.8769545 -11.43995758 78.87832916 -10.55587769 78.87974548 C-9.81659971 78.87882369 -9.07732174 78.8779019 -8.3156414 78.87695217 C-5.52253731 79.02537126 -2.75898784 79.54016869 0 80 C0 53.6 0 27.2 0 0 Z " fill="#283C3E" transform="translate(194,159)"/>
<path d="M0 0 C2.26602647 3.3990397 2.24858253 4.57181201 2.24291992 8.55712891 C2.24753487 10.26372177 2.24753487 10.26372177 2.25224304 12.00479126 C2.24505753 13.23297577 2.23787201 14.46116028 2.23046875 15.7265625 C2.23001053 16.98512054 2.22955231 18.24367859 2.2290802 19.54037476 C2.22605722 22.20185835 2.21923983 24.86299607 2.20581055 27.52441406 C2.18878633 30.94220403 2.18499728 34.35984631 2.18575573 37.77767372 C2.18541917 41.03148468 2.17658689 44.28526444 2.16796875 47.5390625 C2.16685593 48.77129547 2.1657431 50.00352844 2.16459656 51.27310181 C2.15821671 52.40452606 2.15183685 53.53595032 2.14526367 54.70166016 C2.13954597 56.20365463 2.13954597 56.20365463 2.13371277 57.73599243 C2 60 2 60 1 61 C-0.59610982 61.09333705 -2.19633428 61.11745372 -3.79516602 61.11352539 C-4.81614883 61.11344986 -5.83713165 61.11337433 -6.88905334 61.11329651 C-7.9994548 61.10813522 -9.10985626 61.10297394 -10.25390625 61.09765625 C-11.38448959 61.0962413 -12.51507294 61.09482635 -13.67991638 61.09336853 C-17.30747065 61.08775019 -20.93496424 61.07519458 -24.5625 61.0625 C-27.01497307 61.05748736 -29.4674471 61.05292405 -31.91992188 61.04882812 C-37.94663545 61.0377748 -43.97331339 61.02101884 -50 61 C-49.67 59.35 -49.34 57.7 -49 56 C-50.65 56 -52.3 56 -54 56 C-51.63365042 53.63365042 -49.68430639 53.00195289 -46.5625 51.8125 C-24.45838628 42.73873494 -11.72438037 26.04666361 -2 5 C-1.31609502 3.3403325 -0.64091525 1.67673787 0 0 Z " fill="#24B8D2" transform="translate(472,306)"/>
<path d="M0 0 C0.66 0 1.32 0 2 0 C8.99158233 14.30128342 15.80912496 28.65772061 22.3125 43.1875 C27.30725226 54.34527786 32.34770047 65.46574923 38.203125 76.20703125 C39 78 39 78 39 81 C35.37 81 31.74 81 28 81 C28 76.38 28 71.76 28 67 C18.76 67 9.52 67 0 67 C0 44.89 0 22.78 0 0 Z " fill="#31C2DA" transform="translate(267,173)"/>
<path d="M0 0 C18.15 0 36.3 0 55 0 C55 6.93 55 13.86 55 21 C33.88 21 12.76 21 -9 21 C-8 15 -8 15 0 0 Z " fill="#29BDD6" transform="translate(211,266)"/>
<path d="M0 0 C19.47 0 38.94 0 59 0 C59 26.4 59 52.8 59 80 C68.75691406 79.89171875 68.75691406 79.89171875 78.7109375 79.78125 C82.86718637 79.73556854 87.02343573 79.68994583 91.1796875 79.64453125 C97.75586578 79.5726691 104.33204137 79.50060635 110.90820312 79.42724609 C116.21855377 79.3680203 121.52891445 79.30977993 126.83928299 79.25218201 C128.85073853 79.23019979 130.86219042 79.20788087 132.87363815 79.18519592 C138.38622502 79.12314436 143.89879952 79.06649835 149.41155243 79.02133179 C151.14793675 79.00702198 152.88431136 78.99148376 154.62067413 78.97476196 C157.10339699 78.95229049 159.58605997 78.93696854 162.06884766 78.92382812 C163.16648217 78.9124947 163.16648217 78.9124947 164.28629112 78.90093231 C167.98937684 78.88967209 171.4000645 79.11049906 175 80 C175.99 82.97 176.98 85.94 178 89 C178.66 89 179.32 89 180 89 C180.95619733 92.99795892 181.1039592 96.70803922 181.0625 100.8125 C181.05347656 101.97394531 181.04445313 103.13539063 181.03515625 104.33203125 C181.01775391 105.65267578 181.01775391 105.65267578 181 107 C180.67 107 180.34 107 180 107 C179.67 105.02 179.34 103.04 179 101 C179.01047363 101.6391333 179.02094727 102.2782666 179.03173828 102.93676758 C179.07388495 105.89530335 179.09950945 108.85377561 179.125 111.8125 C179.14175781 112.81732422 179.15851563 113.82214844 179.17578125 114.85742188 C179.21964423 121.67811578 178.90617467 128.40836802 177 135 C176.34 135.66 175.68 136.32 175 137 C175 128.75 175 120.5 175 112 C150.91 112 126.82 112 102 112 C102 115.3 102 118.6 102 122 C97.68638859 120.92159715 96.95475124 120.04708722 94 117 C89.05346492 113.91658716 83.6209508 114.4531341 78 115 C70.81923323 116.67484365 66.01999843 119.80702945 62 126 C61.31108371 127.3219745 60.63815344 128.65278717 60 130 C59.34 130 58.68 130 58 130 C58 129.01 58 128.02 58 127 C57.34 127 56.68 127 56 127 C56.33 85.75 56.66 44.5 57 2 C28.29 2.495 28.29 2.495 -1 3 C-0.67 2.01 -0.34 1.02 0 0 Z M58 82 C58 91.57 58 101.14 58 111 C96.61 111 135.22 111 175 111 C175 101.43 175 91.86 175 82 C136.39 82 97.78 82 58 82 Z M177 109 C177 110.98 177 112.96 177 115 C177.33 115 177.66 115 178 115 C178 113.02 178 111.04 178 109 C177.67 109 177.34 109 177 109 Z " fill="#1E565F" transform="translate(297,159)"/>
<path d="M0 0 C0.33 0 0.66 0 1 0 C1 17.82 1 35.64 1 54 C-8.86476191 51.53380952 -15.65009662 41.19987127 -21 33 C-23.88302893 28.12852083 -26.47668624 23.10445977 -28.98730469 18.03271484 C-29.69154722 16.61913642 -30.41222671 15.21367667 -31.14550781 13.81494141 C-31.51256836 13.10901855 -31.87962891 12.4030957 -32.2578125 11.67578125 C-32.59184082 11.04196533 -32.92586914 10.40814941 -33.27001953 9.75512695 C-34 8 -34 8 -34 5 C-27.73 5 -21.46 5 -15 5 C-14.67 4.34 -14.34 3.68 -14 3 C-12.96875 3.226875 -11.9375 3.45375 -10.875 3.6875 C-6.49500149 4.04072569 -4.67878783 3.27734485 -1 1 C-0.67 0.67 -0.34 0.34 0 0 Z " fill="#28BDD6" transform="translate(397,299)"/>
<path d="M0 0 C10.56 0 21.12 0 32 0 C32 6.93 32 13.86 32 21 C18.47 21 4.94 21 -9 21 C-7.875 14.25 -7.875 14.25 -6.15234375 11.1328125 C-5.82999756 10.53871582 -5.50765137 9.94461914 -5.17553711 9.33251953 C-4.76698486 8.60403809 -4.35843262 7.87555664 -3.9375 7.125 C-2.638125 4.77375 -1.33875 2.4225 0 0 Z " fill="#2DBFD7" transform="translate(234,219)"/>
<path d="M0 0 C0.33 0 0.66 0 1 0 C1 21.12 1 42.24 1 64 C-7.63427093 61.12190969 -10.29191207 60.06213189 -15 53 C-17.48410001 33.67656821 -8.37950473 16.7962517 0 0 Z " fill="#26ADC6" transform="translate(195,297)"/>
<path d="M0 0 C1.87295532 -0.36076355 1.87295532 -0.36076355 4.17431641 -0.34057617 C5.03505768 -0.34034958 5.89579895 -0.34012299 6.78262329 -0.33988953 C7.71287323 -0.32440567 8.64312317 -0.30892181 9.6015625 -0.29296875 C10.55316254 -0.28872391 11.50476257 -0.28447906 12.48519897 -0.28010559 C15.53208414 -0.26327896 18.57831391 -0.22561954 21.625 -0.1875 C23.68749046 -0.17245831 25.74999127 -0.15876901 27.8125 -0.14648438 C32.8752535 -0.11336239 37.93751554 -0.06155284 43 0 C43 4.29 43 8.58 43 13 C26.83 13 10.66 13 -6 13 C-2 3 -2 3 0 0 Z " fill="#2ABDD6" transform="translate(223,241)"/>
<path d="M0 0 C17.82 0 35.64 0 54 0 C54 0.99 54 1.98 54 3 C36.84 2.67 19.68 2.34 2 2 C2.09539062 9.48429688 2.19078125 16.96859375 2.2890625 24.6796875 C2.34486027 29.41014909 2.40006557 34.1406026 2.453125 38.87109375 C2.53747246 46.38599006 2.62405904 53.90081536 2.72363281 61.41552734 C2.80373913 67.47137814 2.87409276 73.52726968 2.93757248 79.5833168 C2.96357419 81.89830859 2.99314046 84.21326307 3.02626419 86.52816391 C3.07192124 89.76077572 3.10510885 92.9932859 3.13525391 96.22607422 C3.16006584 97.6740036 3.16006584 97.6740036 3.18537903 99.15118408 C3.19104385 100.02900543 3.19670868 100.90682678 3.20254517 101.81124878 C3.2117631 102.57633696 3.22098103 103.34142513 3.23047829 104.1296978 C3 106 3 106 1 108 C1 99.42 1 90.84 1 82 C-34.97 82 -70.94 82 -108 82 C-108.33 81.34 -108.66 80.68 -109 80 C-106.72669189 78.86334595 -105.48938784 78.8743107 -102.96551514 78.87301636 C-102.12160721 78.87019653 -101.27769928 78.86737671 -100.40821838 78.86447144 C-99.01650673 78.86750778 -99.01650673 78.86750778 -97.59667969 78.87060547 C-96.1330323 78.86797699 -96.1330323 78.86797699 -94.63981628 78.86529541 C-91.40048465 78.86087927 -88.16120724 78.86381497 -84.921875 78.8671875 C-82.67466217 78.86651417 -80.4274494 78.86554391 -78.18023682 78.86428833 C-73.462436 78.8628115 -68.74465409 78.86496463 -64.02685547 78.86962891 C-57.98304099 78.87531309 -51.93927105 78.87205541 -45.89545822 78.86605644 C-41.25089178 78.86243926 -36.60633586 78.86359498 -31.9617691 78.86618423 C-29.73385869 78.86685098 -27.50594732 78.8660339 -25.27803802 78.86370468 C-22.15896589 78.86116067 -19.03996526 78.86504407 -15.92089844 78.87060547 C-15.00118759 78.86858124 -14.08147675 78.86655701 -13.13389587 78.86447144 C-12.27870865 78.86729126 -11.42352142 78.87011108 -10.54241943 78.87301636 C-9.8057391 78.87339338 -9.06905876 78.87377041 -8.31005478 78.87415886 C-5.51886918 79.02620979 -2.75729065 79.54045156 0 80 C0 53.6 0 27.2 0 0 Z " fill="#21758F" transform="translate(194,159)"/>
<path d="M0 0 C8.91 0 17.82 0 27 0 C27 6.93 27 13.86 27 21 C18.09 21 9.18 21 0 21 C0 14.07 0 7.14 0 0 Z " fill="#2CC0D9" transform="translate(267,266)"/>
<path d="M0 0 C19.47 0 38.94 0 59 0 C59 26.4 59 52.8 59 80 C68.75691406 79.89171875 68.75691406 79.89171875 78.7109375 79.78125 C82.86718637 79.73556854 87.02343573 79.68994583 91.1796875 79.64453125 C97.75586578 79.5726691 104.33204137 79.50060635 110.90820312 79.42724609 C116.21855377 79.3680203 121.52891445 79.30977993 126.83928299 79.25218201 C128.85073853 79.23019979 130.86219042 79.20788087 132.87363815 79.18519592 C138.38622502 79.12314436 143.89879952 79.06649835 149.41155243 79.02133179 C151.14793675 79.00702198 152.88431136 78.99148376 154.62067413 78.97476196 C157.10339699 78.95229049 159.58605997 78.93696854 162.06884766 78.92382812 C163.16648217 78.9124947 163.16648217 78.9124947 164.28629112 78.90093231 C167.98937684 78.88967209 171.4000645 79.11049906 175 80 C175 80.66 175 81.32 175 82 C159.91002382 82.02333906 144.82004904 82.04098414 129.73005867 82.05181217 C122.72384158 82.05697298 115.71763569 82.0640116 108.71142578 82.07543945 C101.95523804 82.08645426 95.19906436 82.09227769 88.44286728 82.09487724 C85.85997204 82.09673077 83.27707747 82.10035 80.69418716 82.10573006 C77.08793996 82.11294573 73.48174149 82.11399071 69.87548828 82.11352539 C68.79799316 82.11712067 67.72049805 82.12071594 66.61035156 82.12442017 C65.63156036 82.1230455 64.65276917 82.12167084 63.64431763 82.12025452 C62.79073732 82.12117631 61.93715702 82.1220981 61.05771065 82.12304783 C59 82 59 82 57 81 C57 54.93 57 28.86 57 2 C28.29 2.495 28.29 2.495 -1 3 C-0.67 2.01 -0.34 1.02 0 0 Z " fill="#2A727B" transform="translate(297,159)"/>
<path d="M0 0 C16.335 0.495 16.335 0.495 33 1 C33 8.26 33 15.52 33 23 C42.24 23 51.48 23 61 23 C61 27.62 61 32.24 61 37 C51.43 37 41.86 37 32 37 C32 32.71 32 28.42 32 24 C17.81 24 3.62 24 -11 24 C-10.01 22.515 -10.01 22.515 -9 21 C-9 21.66 -9 22.32 -9 23 C4.53 23 18.06 23 32 23 C32 16.07 32 9.14 32 2 C21.44 2 10.88 2 0 2 C0 1.34 0 0.68 0 0 Z " fill="#2B808D" transform="translate(234,217)"/>
<path d="M0 0 C5.61 0 11.22 0 17 0 C18.299375 2.35125 19.59875 4.7025 20.9375 7.125 C21.34605225 7.85348145 21.75460449 8.58196289 22.17553711 9.33251953 C22.4978833 9.92661621 22.82022949 10.52071289 23.15234375 11.1328125 C23.48226318 11.72980957 23.81218262 12.32680664 24.15209961 12.94189453 C25 15 25 15 26 21 C17.42 21 8.84 21 0 21 C0 14.07 0 7.14 0 0 Z " fill="#2CBCD4" transform="translate(295,266)"/>
<path d="M0 0 C4.56863952 0.5475523 7.86227843 2.50816586 11.625 5 C12.23674072 5.40009277 12.84848145 5.80018555 13.47875977 6.21240234 C22.09765726 11.94637422 29.84905171 18.52573755 37 26 C37.78375 26.763125 38.5675 27.52625 39.375 28.3125 C40.24125 29.199375 41.1075 30.08625 42 31 C42.62261719 31.61488281 43.24523437 32.22976562 43.88671875 32.86328125 C64.521678 54.31326582 76.07084272 84.07362967 81 113 C80.34 113 79.68 113 79 113 C78.505 114.485 78.505 114.485 78 116 C77.01 110.06 77.01 110.06 76 104 C75.34 104 74.68 104 74 104 C73.7980603 103.20287598 73.7980603 103.20287598 73.59204102 102.38964844 C67.12122733 77.30147914 56.82091211 55.76857671 40 36 C38.79795914 34.49063323 37.60877918 32.9708608 36.4375 31.4375 C35.96183594 30.81746094 35.48617187 30.19742188 34.99609375 29.55859375 C34 28 34 28 34 26 C25.90346844 15.74104075 13.39824832 8.52774874 2.1328125 2.27734375 C1.42898438 1.85582031 0.72515625 1.43429688 0 1 C0 0.67 0 0.34 0 0 Z " fill="#2A393C" transform="translate(396,135)"/>
<path d="M0 0 C0.495 0.99 0.495 0.99 1 2 C2.98 2 4.96 2 7 2 C7 2.66 7 3.32 7 4 C5.68 4 4.36 4 3 4 C3.495 5.98 3.495 5.98 4 8 C1.03 7.67 -1.94 7.34 -5 7 C-5.33 7.66 -5.66 8.32 -6 9 C-6 8.01 -6 7.02 -6 6 C-34.4687692 11.51090358 -61.03947446 19.83935141 -87 33 C-87.33 32.01 -87.66 31.02 -88 30 C-85.36 28.68 -82.72 27.36 -80 26 C-80 25.34 -80 24.68 -80 24 C-54.71241105 12.22480768 -27.85762618 3.0844691 0 0 Z " fill="#252827" transform="translate(274,114)"/>
<path d="M0 0 C3.3816174 2.05622157 5.28489872 3.65000434 7.5078125 6.984375 C7.5078125 7.974375 7.5078125 8.964375 7.5078125 9.984375 C-4.56796769 11.87332386 -16.28673311 12.20947559 -28.4921875 11.984375 C-27.2115839 8.09635686 -25.96221477 6.15101683 -22.6171875 3.796875 C-21.93914062 3.30832031 -21.26109375 2.81976563 -20.5625 2.31640625 C-14.28296724 -1.72382143 -7.13811128 -2.90894817 0 0 Z " fill="#33C0D9" transform="translate(389.4921875,274.015625)"/>
<path d="M0 0 C7.26 0 14.52 0 22 0 C22 2.97 22 5.94 22 9 C21.01 9.33 20.02 9.66 19 10 C19.495 10.433125 19.99 10.86625 20.5 11.3125 C22 13 22 13 22 16 C15.73 16 9.46 16 3 16 C-1.57692308 6.84615385 -1.57692308 6.84615385 -1 2 C-0.67 1.34 -0.34 0.68 0 0 Z " fill="#27BDD6" transform="translate(359,287)"/>
<path d="M0 0 C0.33 0 0.66 0 1 0 C1.66 4.29 2.32 8.58 3 13 C3.33 13 3.66 13 4 13 C4.42542086 28.12607514 2.44728657 42.29157731 -1 57 C-1.66 56.34 -2.32 55.68 -3 55 C-3.29132813 55.82242188 -3.58265625 56.64484375 -3.8828125 57.4921875 C-11.24436598 77.53968848 -24.13542371 93.63705943 -43 104 C-46.94802671 105.81371065 -50.93736731 107.46144626 -55 109 C-55.66 108.34 -56.32 107.68 -57 107 C-56.41734375 106.79246094 -55.8346875 106.58492188 -55.234375 106.37109375 C-33.07853534 98.04523577 -18.27042686 82.94588463 -8.20703125 61.765625 C-2.96633814 49.75782332 0.15203695 36.64090425 0.09765625 23.53515625 C0.09553383 22.51789711 0.09553383 22.51789711 0.09336853 21.48008728 C0.08782745 19.34084422 0.07528653 17.20171075 0.0625 15.0625 C0.05747736 13.60091298 0.0529158 12.13932431 0.04882812 10.67773438 C0.03787745 7.11845474 0.02065445 3.55923809 0 0 Z " fill="#082329" transform="translate(475,252)"/>
<path d="M0 0 C17.82 0 35.64 0 54 0 C54 0.99 54 1.98 54 3 C36.84 2.67 19.68 2.34 2 2 C2 28.07 2 54.14 2 81 C1.34 80.67 0.68 80.34 0 80 C0 53.6 0 27.2 0 0 Z " fill="#1E5057" transform="translate(194,159)"/>
<path d="M0 0 C2.97 0.495 2.97 0.495 6 1 C5.67 2.65 5.34 4.3 5 6 C-29.65 6 -64.3 6 -100 6 C-99.67 5.01 -99.34 4.02 -99 3 C-96.69 3 -94.38 3 -92 3 C-92 2.34 -92 1.68 -92 1 C-90.68 1 -89.36 1 -88 1 C-87.67 1.66 -87.34 2.32 -87 3 C-57.96 3 -28.92 3 1 3 C0.505 1.515 0.505 1.515 0 0 Z " fill="#080B0C" transform="translate(417,361)"/>
<path d="M0 0 C2.26602647 3.3990397 2.24858253 4.57181201 2.24291992 8.55712891 C2.24753487 10.26372177 2.24753487 10.26372177 2.25224304 12.00479126 C2.24505753 13.23297577 2.23787201 14.46116028 2.23046875 15.7265625 C2.23001053 16.98512054 2.22955231 18.24367859 2.2290802 19.54037476 C2.22605722 22.20185835 2.21923983 24.86299607 2.20581055 27.52441406 C2.18878633 30.94220403 2.18499728 34.35984631 2.18575573 37.77767372 C2.18541917 41.03148468 2.17658689 44.28526444 2.16796875 47.5390625 C2.16685593 48.77129547 2.1657431 50.00352844 2.16459656 51.27310181 C2.15821671 52.40452606 2.15183685 53.53595032 2.14526367 54.70166016 C2.13954597 56.20365463 2.13954597 56.20365463 2.13371277 57.73599243 C2 60 2 60 1 61 C-0.59610982 61.09333705 -2.19633428 61.11745372 -3.79516602 61.11352539 C-4.81614883 61.11344986 -5.83713165 61.11337433 -6.88905334 61.11329651 C-7.9994548 61.10813522 -9.10985626 61.10297394 -10.25390625 61.09765625 C-11.38448959 61.0962413 -12.51507294 61.09482635 -13.67991638 61.09336853 C-17.30747065 61.08775019 -20.93496424 61.07519458 -24.5625 61.0625 C-27.01497307 61.05748736 -29.4674471 61.05292405 -31.91992188 61.04882812 C-37.94663545 61.0377748 -43.97331339 61.02101884 -50 61 C-49.67 60.34 -49.34 59.68 -49 59 C-32.83 59 -16.66 59 0 59 C-0.08378906 54.82472656 -0.16757812 50.64945312 -0.25390625 46.34765625 C-0.31769596 43.02704188 -0.38046596 39.70641173 -0.44254303 36.38576508 C-0.5084425 32.87568894 -0.57615554 29.36566887 -0.64819336 25.85571289 C-0.7306875 21.83228789 -0.80503044 17.80874879 -0.87890625 13.78515625 C-0.90594131 12.52163834 -0.93297638 11.25812042 -0.96083069 9.95631409 C-0.98092697 8.795186 -1.00102325 7.63405792 -1.02172852 6.43774414 C-1.04171402 5.40960098 -1.06169952 4.38145782 -1.08229065 3.32215881 C-1 1 -1 1 0 0 Z " fill="#23949E" transform="translate(472,306)"/>
<path d="M0 0 C0.33 0 0.66 0 1 0 C1.33 40.26 1.66 80.52 2 122 C17.345 121.505 17.345 121.505 33 121 C33 121.99 33 122.98 33 124 C29.155528 124.89906719 25.58492842 125.12876291 21.640625 125.1328125 C20.44308594 125.13410156 19.24554688 125.13539063 18.01171875 125.13671875 C16.77035156 125.13285156 15.52898437 125.12898438 14.25 125.125 C12.99316406 125.12886719 11.73632812 125.13273437 10.44140625 125.13671875 C9.24902344 125.13542969 8.05664062 125.13414062 6.828125 125.1328125 C5.7340332 125.13168457 4.63994141 125.13055664 3.51269531 125.12939453 C1 125 1 125 0 124 C-0.09600136 122.393108 -0.12187889 120.78198231 -0.12025452 119.17222595 C-0.12162918 118.12749619 -0.12300385 117.08276642 -0.12442017 116.00637817 C-0.12082489 114.85048187 -0.11722961 113.69458557 -0.11352539 112.50366211 C-0.11367142 111.29407333 -0.11381744 110.08448456 -0.1139679 108.83824158 C-0.11338893 105.51193649 -0.10835973 102.18569281 -0.10139394 98.8593986 C-0.09515978 95.38670071 -0.09455655 91.91400207 -0.09336853 88.44129944 C-0.0902554 81.86103807 -0.08204225 75.28079324 -0.07201904 68.70053917 C-0.06085734 61.21093888 -0.05534731 53.72133782 -0.05032361 46.2317313 C-0.03985962 30.82114461 -0.02226053 15.41057443 0 0 Z " fill="#288597" transform="translate(84,242)"/>
<path d="M0 0 C0.94311035 0.00141495 1.8862207 0.0028299 2.85791016 0.00428772 C5.84280697 0.00984385 8.82762621 0.02238802 11.8125 0.03515625 C13.84765516 0.04017693 15.88281151 0.04473884 17.91796875 0.04882812 C22.88284197 0.05979888 27.84765787 0.07703286 32.8125 0.09765625 C32.8125 0.75765625 32.8125 1.41765625 32.8125 2.09765625 C30.8325 2.42765625 28.8525 2.75765625 26.8125 3.09765625 C26.8125 3.42765625 26.8125 3.75765625 26.8125 4.09765625 C13.9425 4.42765625 1.0725 4.75765625 -12.1875 5.09765625 C-12.1875 4.43765625 -12.1875 3.77765625 -12.1875 3.09765625 C-14.1675 3.09765625 -16.1475 3.09765625 -18.1875 3.09765625 C-18.1875 2.43765625 -18.1875 1.77765625 -18.1875 1.09765625 C-12.07976537 0.2007379 -6.16795216 -0.03539997 0 0 Z " fill="#2B2C2A" transform="translate(293.1875,112.90234375)"/>
<path d="M0 0 C4.62 0 9.24 0 14 0 C14 4.29 14 8.58 14 13 C9.38 13 4.76 13 0 13 C0 8.71 0 4.42 0 0 Z " fill="#2FC1DA" transform="translate(267,241)"/>
<path d="M0 0 C2.86453858 3.41016497 4.34703566 6.90694544 6 11 C6.66 11 7.32 11 8 11 C11.74263544 22.25213049 15.00591557 33.29787296 17 45 C16.34 45 15.68 45 15 45 C14.67 45.99 14.34 46.98 14 48 C13.34 44.04 12.68 40.08 12 36 C11.34 36 10.68 36 10 36 C9.84442627 35.42145264 9.68885254 34.84290527 9.52856445 34.24682617 C5.73070139 19.75257183 5.73070139 19.75257183 -0.21484375 6.05859375 C-1.15017342 3.60626174 -0.88634956 2.42782705 0 0 Z " fill="#2B3F45" transform="translate(460,203)"/>
<path d="M0 0 C1.98 0 3.96 0 6 0 C6.62739631 8.9752527 6.62739631 8.9752527 4.125 13.0625 C1.29111024 15.64634066 -0.25724085 16.15309964 -4 16.1875 C-5.051875 16.20876953 -5.051875 16.20876953 -6.125 16.23046875 C-8 16 -8 16 -10 14 C-10.55555556 7.88888889 -10.55555556 7.88888889 -8.75 5 C-7 4 -7 4 -4.8125 4.3125 C-4.214375 4.539375 -3.61625 4.76625 -3 5 C-3 6.32 -3 7.64 -3 9 C-2.34 9.33 -1.68 9.66 -1 10 C-0.67 10.33 -0.34 10.66 0 11 C0 9.68 0 8.36 0 7 C1.32 7 2.64 7 4 7 C4 6.34 4 5.68 4 5 C2.02 5.33 0.04 5.66 -2 6 C-1.33333333 4 -0.66666667 2 0 0 Z " fill="#2BB9D0" transform="translate(392,286)"/>
<path d="M0 0 C0.495 0.99 0.495 0.99 1 2 C2.98 2 4.96 2 7 2 C7 2.66 7 3.32 7 4 C5.68 4 4.36 4 3 4 C3.495 5.98 3.495 5.98 4 8 C1.03 7.67 -1.94 7.34 -5 7 C-5.33 7.66 -5.66 8.32 -6 9 C-6 8.01 -6 7.02 -6 6 C-6.86165771 6.18961304 -6.86165771 6.18961304 -7.74072266 6.38305664 C-10.36649928 6.95418819 -12.99556757 7.50845409 -15.625 8.0625 C-16.52863281 8.26166016 -17.43226563 8.46082031 -18.36328125 8.66601562 C-23.2216654 9.67670138 -27.09284951 10.29607463 -32 9 C-29 7 -29 7 -26.375 6.5 C-25.59125 6.335 -24.8075 6.17 -24 6 C-23.67 5.34 -23.34 4.68 -23 4 C-20.77514648 3.40576172 -20.77514648 3.40576172 -17.87109375 2.9296875 C-16.83662109 2.75566406 -15.80214844 2.58164063 -14.73632812 2.40234375 C-13.64771484 2.22832031 -12.55910156 2.05429688 -11.4375 1.875 C-10.34501953 1.69324219 -9.25253906 1.51148437 -8.12695312 1.32421875 C-5.4191715 0.87489254 -2.71029323 0.43387427 0 0 Z " fill="#242523" transform="translate(274,114)"/>
<path d="M0 0 C2.27804239 2.87928525 4.04034684 5.7830329 5.6875 9.0625 C6.12449219 9.91972656 6.56148438 10.77695313 7.01171875 11.66015625 C8 14 8 14 8 17 C4.37 17 0.74 17 -3 17 C-3 12.38 -3 7.76 -3 3 C-12.24 3 -21.48 3 -31 3 C-31 2.67 -31 2.34 -31 2 C-20.77 2 -10.54 2 0 2 C0 1.34 0 0.68 0 0 Z " fill="#31B8D0" transform="translate(298,237)"/>
<path d="M0 0 C0.33 0 0.66 0 1 0 C1.66 4.29 2.32 8.58 3 13 C3.33 13 3.66 13 4 13 C4.42542086 28.12607514 2.44728657 42.29157731 -1 57 C-3.43822803 53.34265795 -4.29884458 51.58120005 -3.4765625 47.23046875 C-3.19554687 46.22628906 -2.91453125 45.22210938 -2.625 44.1875 C-0.70741905 37.26091086 0.12750104 30.72775027 0.09765625 23.53515625 C0.0962413 22.85698349 0.09482635 22.17881073 0.09336853 21.48008728 C0.08782745 19.34084422 0.07528653 17.20171075 0.0625 15.0625 C0.05747736 13.60091298 0.0529158 12.13932431 0.04882812 10.67773438 C0.03787745 7.11845474 0.02065445 3.55923809 0 0 Z " fill="#203134" transform="translate(475,252)"/>
<path d="M0 0 C0.33 0 0.66 0 1 0 C1 23.1 1 46.2 1 70 C0.01 69.67 -0.98 69.34 -2 69 C-1.34 68.67 -0.68 68.34 0 68 C0 52.16 0 36.32 0 20 C-2.31 20 -4.62 20 -7 20 C-7 19.67 -7 19.34 -7 19 C-4.69 19 -2.38 19 0 19 C-0.495 17.02 -0.495 17.02 -1 15 C-1.495 15.474375 -1.99 15.94875 -2.5 16.4375 C-6.67191397 19.04494623 -11.12408006 19 -16 19 C-17.55631357 19.06563925 -19.11228991 19.13947974 -20.66796875 19.21875 C-21.56064453 19.26386719 -22.45332031 19.30898438 -23.37304688 19.35546875 C-24.30181641 19.40316406 -25.23058594 19.45085937 -26.1875 19.5 C-27.12787109 19.54769531 -28.06824219 19.59539062 -29.03710938 19.64453125 C-31.35810798 19.76234844 -33.67906877 19.88086414 -36 20 C-36 19.01 -36 18.02 -36 17 C-29.73 17.33 -23.46 17.66 -17 18 C-16.67 16.68 -16.34 15.36 -16 14 C-15.34 14.66 -14.68 15.32 -14 16 C-9.30284735 16.53901752 -7.10632284 16.68262473 -3.0625 14.1875 C-0.12021829 9.64033736 -0.10252517 5.32198846 0 0 Z " fill="#246B76" transform="translate(398,285)"/>
<path d="M0 0 C4.56863952 0.5475523 7.86227843 2.50816586 11.625 5 C12.23674072 5.40009277 12.84848145 5.80018555 13.47875977 6.21240234 C22.09804297 11.94663082 29.84760409 18.52678422 37 26 C38.2684375 27.2375 38.2684375 27.2375 39.5625 28.5 C42.52917282 31.54274135 45.27035748 34.74506545 48 38 C47.505 38.99 47.505 38.99 47 40 C47.39938767 42.09821215 47.39938767 42.09821215 48 44 C44.61866008 40.72773556 41.3862484 37.32601562 38.1875 33.875 C37.39730469 33.02679688 36.60710937 32.17859375 35.79296875 31.3046875 C34 29 34 29 34 26 C26.32678545 15.68167112 13.18245553 8.40802037 2.1328125 2.27734375 C1.42898438 1.85582031 0.72515625 1.43429688 0 1 C0 0.67 0 0.34 0 0 Z " fill="#314444" transform="translate(396,135)"/>
<path d="M0 0 C5.61 0 11.22 0 17 0 C14.33264353 2.66735647 11.82193809 5.00742654 8.9375 7.375 C5.60194226 10.25090918 3.6256799 12.83419527 2 17 C1.34 17 0.68 17 0 17 C0 11.39 0 5.78 0 0 Z " fill="#3194A6" transform="translate(355,272)"/>
<path d="M0 0 C0.99 0.33 1.98 0.66 3 1 C3 42.25 3 83.5 3 126 C2.67 126 2.34 126 2 126 C1.505 65.115 1.505 65.115 1 3 C0.34 3 -0.32 3 -1 3 C-0.67 2.01 -0.34 1.02 0 0 Z " fill="#294F55" transform="translate(83,239)"/>
<path d="M0 0 C0.99 0.33 1.98 0.66 3 1 C1.63875 2.0209375 1.63875 2.0209375 0.25 3.0625 C-3.67686503 6.37521078 -6.67151205 9.9800301 -7.2421875 15.2265625 C-7.24899372 17.15272213 -7.13483834 19.0785537 -7 21 C-7.99 20.67 -8.98 20.34 -10 20 C-10.49571466 37.07461622 -7.61579481 51.66194426 1.9609375 66.07421875 C2.30382812 66.70972656 2.64671875 67.34523438 3 68 C2.505 68.99 2.505 68.99 2 70 C-7.8171071 57.99040565 -12.34365396 43.78334049 -12.375 28.3125 C-12.37661133 27.54623291 -12.37822266 26.77996582 -12.37988281 25.99047852 C-12.30345638 22.18231907 -12.09211748 19.23255746 -10 16 C-9.67 15.34 -9.34 14.68 -9 14 C-9.66 13.67 -10.32 13.34 -11 13 C-10.34 13 -9.68 13 -9 13 C-8.814375 12.154375 -8.62875 11.30875 -8.4375 10.4375 C-6.54205308 5.90490954 -3.59960978 3.25312328 0 0 Z " fill="#0F1311" transform="translate(366,276)"/>
<path d="M0 0 C0.90318614 2.45337447 1.18202651 3.57293185 0.13891602 6.02026367 C-0.31813721 6.72900635 -0.77519043 7.43774902 -1.24609375 8.16796875 C-2.0026123 9.37308105 -2.0026123 9.37308105 -2.77441406 10.60253906 C-3.32323242 11.45557617 -3.87205078 12.30861328 -4.4375 13.1875 C-10.04461701 22.17406834 -14.73442489 31.31463533 -19 41 C-19.99 41 -20.98 41 -22 41 C-20.75101412 37.01011295 -19.29073374 33.36798698 -17.35546875 29.6640625 C-16.84306641 28.68179687 -16.33066406 27.69953125 -15.80273438 26.6875 C-15.26970703 25.676875 -14.73667969 24.66625 -14.1875 23.625 C-13.40536133 22.12066406 -13.40536133 22.12066406 -12.60742188 20.5859375 C-9.92146372 15.46216213 -7.15476508 10.46860701 -3.97387695 5.63427734 C-2.8304685 3.84804904 -2.8304685 3.84804904 -2 1 C-1.34 0.67 -0.68 0.34 0 0 Z " fill="#1E282B" transform="translate(81,240)"/>
<path d="M0 0 C0.66 0.33 1.32 0.66 2 1 C1.67314209 1.56283691 1.34628418 2.12567383 1.00952148 2.70556641 C-6.8728002 16.26145203 -6.8728002 16.26145203 -14.3125 30.0625 C-14.86550781 31.12597656 -15.41851562 32.18945312 -15.98828125 33.28515625 C-17.07588923 36.20364099 -16.98458075 37.14789189 -16 40 C-16.33 40.66 -16.66 41.32 -17 42 C-17.99 42 -18.98 42 -20 42 C-21.65 45.96 -23.3 49.92 -25 54 C-26.10150338 49.59398648 -25.88580936 48.97498201 -24.078125 45.0625 C-23.63476807 44.09425293 -23.19141113 43.12600586 -22.73461914 42.12841797 C-22.24469482 41.09604004 -21.75477051 40.06366211 -21.25 39 C-20.7542749 37.93797363 -20.2585498 36.87594727 -19.74780273 35.78173828 C-13.9335797 23.48964765 -7.72376349 11.21827365 0 0 Z " fill="#2D4348" transform="translate(77,243)"/>
<path d="M0 0 C0.33 0.33 0.66 0.66 1 1 C3.03854695 1.14669069 5.08188779 1.22754403 7.125 1.28125 C8.38957031 1.31863281 9.65414062 1.35601562 10.95703125 1.39453125 C12.30467557 1.43014173 13.65233206 1.46529471 15 1.5 C23.05256525 1.71505367 31.00841789 1.94847604 39 3 C39 3.33 39 3.66 39 4 C22.83 4 6.66 4 -10 4 C-10 3.01 -10 2.02 -10 1 C-6.50615721 -0.16461426 -3.66344611 -0.13568319 0 0 Z " fill="#317E95" transform="translate(212,363)"/>
<path d="M0 0 C-3.96 1.98 -3.96 1.98 -8 4 C-8 4.99 -8 5.98 -8 7 C-8.97839844 7.06316406 -9.95679688 7.12632812 -10.96484375 7.19140625 C-15.84176626 7.89790494 -19.47089014 10.31679687 -23.5625 12.9375 C-24.34028809 13.42387939 -25.11807617 13.91025879 -25.91943359 14.41137695 C-33.15393606 18.98524439 -40.12554941 23.904949 -47 29 C-47 28.01 -47 27.02 -47 26 C-45.01430003 24.3049649 -43.08367999 22.84208089 -40.9375 21.375 C-40.3077124 20.93623535 -39.6779248 20.4974707 -39.02905273 20.04541016 C-32.21767389 15.36074475 -25.18378533 11.08542828 -18 7 C-17.31599121 6.60941406 -16.63198242 6.21882812 -15.92724609 5.81640625 C-13.87604896 4.65436283 -11.81572515 3.51098554 -9.75 2.375 C-9.11779541 2.01970215 -8.48559082 1.6644043 -7.83422852 1.29833984 C-3.34946198 -1.11648733 -3.34946198 -1.11648733 0 0 Z " fill="#333D3F" transform="translate(195,140)"/>
<path d="M0 0 C17.49 0 34.98 0 53 0 C52.67 0.99 52.34 1.98 52 3 C49.85424137 3.02747059 47.70837559 3.04660463 45.5625 3.0625 C44.36753906 3.07410156 43.17257812 3.08570313 41.94140625 3.09765625 C39.19141932 3.0295198 36.67555708 2.87154703 33.96875 2.53125 C27.31779047 1.73034911 20.62806225 1.63864554 13.9375 1.4375 C12.58136984 1.39420372 11.22524989 1.35058634 9.86914062 1.30664062 C6.57951329 1.2012789 3.28981941 1.09915048 0 1 C0 0.67 0 0.34 0 0 Z " fill="#1D92A1" transform="translate(213,364)"/>
<path d="M0 0 C3.89581756 -0.02911003 7.791607 -0.04683587 11.6875 -0.0625 C12.79029297 -0.07087891 13.89308594 -0.07925781 15.02929688 -0.08789062 C16.6293457 -0.09272461 16.6293457 -0.09272461 18.26171875 -0.09765625 C19.24100342 -0.10289307 20.22028809 -0.10812988 21.22924805 -0.11352539 C23.92469572 -0.00308543 26.37545639 0.39465834 29 1 C29 1.66 29 2.32 29 3 C15.14 3 1.28 3 -13 3 C-13 2.67 -13 2.34 -13 2 C-6.565 1.505 -6.565 1.505 0 1 C0 0.67 0 0.34 0 0 Z " fill="#21979E" transform="translate(443,238)"/>
<path d="M0 0 C1.10424805 1.66333008 1.10424805 1.66333008 2 4 C1.44848633 6.54956055 1.44848633 6.54956055 0.33203125 9.38671875 C-0.06693359 10.40701172 -0.46589844 11.42730469 -0.87695312 12.47851562 C-1.52567383 14.06696289 -1.52567383 14.06696289 -2.1875 15.6875 C-2.8072168 17.29334961 -2.8072168 17.29334961 -3.43945312 18.93164062 C-5.78010264 24.80000991 -5.78010264 24.80000991 -7 27 C-7.99 27.33 -8.98 27.66 -10 28 C-10.33 28.66 -10.66 29.32 -11 30 C-10.56489253 26.88172983 -10.07085107 24.17319151 -8.875 21.25 C-8.58625 20.5075 -8.2975 19.765 -8 19 C-8.33 18.34 -8.66 17.68 -9 17 C-8.20494045 14.41605646 -7.54032869 12.51250689 -5.55859375 10.6328125 C-3.69019817 8.6754457 -2.85802066 6.80011813 -1.8125 4.3125 C-1.29623047 3.10013672 -1.29623047 3.10013672 -0.76953125 1.86328125 C-0.51558594 1.24839844 -0.26164062 0.63351562 0 0 Z " fill="#1D272B" transform="translate(57,283)"/>
<path d="M0 0 C2.25111973 0.28289472 4.50087686 0.57664693 6.75 0.875 C8.62945312 1.11863281 8.62945312 1.11863281 10.546875 1.3671875 C13.52007767 1.91205043 15.44222744 2.48428293 18 4 C18.7425 4.37125 19.485 4.7425 20.25 5.125 C21.11625 5.558125 21.11625 5.558125 22 6 C16.25 6.125 16.25 6.125 14 5 C13.67 5.66 13.34 6.32 13 7 C10.41536498 6.71749338 7.83268865 6.4243774 5.25 6.125 C4.15558594 6.00705078 4.15558594 6.00705078 3.0390625 5.88671875 C-0.66777257 5.44863824 -3.80452172 5.0013785 -7 3 C-7 2.67 -7 2.34 -7 2 C-4.69 2 -2.38 2 0 2 C0 1.34 0 0.68 0 0 Z " fill="#252725" transform="translate(326,113)"/>
<path d="M0 0 C3.96 0 7.92 0 12 0 C12 2.31 12 4.62 12 7 C8.04 7 4.08 7 0 7 C0 4.69 0 2.38 0 0 Z " fill="#2FBFD7" transform="translate(282,241)"/>
<path d="M0 0 C0.66 0.99 1.32 1.98 2 3 C1.20335938 3.7734375 0.40671875 4.546875 -0.4140625 5.34375 C-8.18291301 12.92817775 -8.18291301 12.92817775 -14.71875 21.57421875 C-16.34107492 23.37954984 -17.64285396 23.62545349 -20 24 C-18.23019598 20.16828838 -15.84398229 17.1036139 -13.2421875 13.8046875 C-11.81100575 12.09056903 -11.81100575 12.09056903 -12 10 C-11.319375 9.608125 -10.63875 9.21625 -9.9375 8.8125 C-6.04320494 6.40963709 -3.13837888 3.30117663 0 0 Z " fill="#212A2B" transform="translate(118,194)"/>
<path d="M0 0 C4.29 0 8.58 0 13 0 C13 0.66 13 1.32 13 2 C11.02 2.33 9.04 2.66 7 3 C7 3.33 7 3.66 7 4 C-0.59 4 -8.18 4 -16 4 C-16.33 3.34 -16.66 2.68 -17 2 C-8.585 1.505 -8.585 1.505 0 1 C0 0.67 0 0.34 0 0 Z " fill="#383837" transform="translate(313,113)"/>
<path d="M0 0 C0.66 0.99 1.32 1.98 2 3 C0.95199219 4.33804688 0.95199219 4.33804688 -0.1171875 5.703125 C-1.03663863 6.88527646 -1.95589949 8.06757592 -2.875 9.25 C-3.33519531 9.83652344 -3.79539062 10.42304688 -4.26953125 11.02734375 C-6.13176852 13.42935994 -7.82463337 15.64926675 -9.1875 18.375 C-10 20 -10 20 -12.125 20.75 C-13.053125 20.87375 -13.053125 20.87375 -14 21 C-12.58810173 16.98263998 -10.66297846 13.90951069 -8.125 10.5 C-7.44695312 9.5821875 -6.76890625 8.664375 -6.0703125 7.71875 C-4.08576606 5.11262864 -2.05860966 2.54787563 0 0 Z " fill="#1A2728" transform="translate(96,219)"/>
<path d="M0 0 C5.76118817 0.55704204 10.5043694 2.17705583 15.8125 4.4375 C16.57498047 4.75009766 17.33746094 5.06269531 18.12304688 5.38476562 C23.72943579 7.72943579 23.72943579 7.72943579 26 10 C25.01 10.495 25.01 10.495 24 11 C22.01171875 10.2578125 22.01171875 10.2578125 19.6875 9.125 C16.46566723 7.62803911 13.58087412 6.32553401 10 6 C9.01 6.495 9.01 6.495 8 7 C5.96855359 6.06553465 3.96466413 5.06775224 2 4 C2.99 3.67 3.98 3.34 5 3 C2.525 2.01 2.525 2.01 0 1 C0 0.67 0 0.34 0 0 Z " fill="#2C3436" transform="translate(368,123)"/>
<path d="M0 0 C3.88325758 4.83909247 6.16678905 10.39753737 8.75 16 C9.26949219 17.093125 9.78898437 18.18625 10.32421875 19.3125 C11.05318359 20.8903125 11.05318359 20.8903125 11.796875 22.5 C12.24385742 23.4590625 12.69083984 24.418125 13.15136719 25.40625 C14.05178462 28.15827382 14.02439556 29.33939531 13 32 C12.63032104 31.16976318 12.63032104 31.16976318 12.25317383 30.32275391 C11.10859413 27.75579686 9.96098724 25.19021116 8.8125 22.625 C8.40338379 21.70992676 7.99426758 20.79485352 7.57275391 19.85205078 C5.10711367 14.36709981 2.55682473 8.96384149 -0.3203125 3.6796875 C-0.54460937 3.12539062 -0.76890625 2.57109375 -1 2 C-0.67 1.34 -0.34 0.68 0 0 Z " fill="#0A0A09" transform="translate(278,121)"/>
<path d="M0 0 C7.26 0 14.52 0 22 0 C22.33 1.65 22.66 3.3 23 5 C24.65 4.67 26.3 4.34 28 4 C28.33 4.66 28.66 5.32 29 6 C28.236875 6 27.47375 6 26.6875 6 C23.8993117 6.70180149 23.8993117 6.70180149 23 8.84765625 C22.25331349 10.88309495 21.58484471 12.91262742 21 15 C19.68 13.68 18.36 12.36 17 11 C18.32 11 19.64 11 21 11 C21 8.03 21 5.06 21 2 C14.07 2 7.14 2 0 2 C0 1.34 0 0.68 0 0 Z " fill="#387781" transform="translate(360,285)"/>
<path d="M0 0 C3.96 0 7.92 0 12 0 C12 1.65 12 3.3 12 5 C8.04 5 4.08 5 0 5 C0 3.35 0 1.7 0 0 Z " fill="#31B7CF" transform="translate(282,249)"/>
<path d="M0 0 C2.19140625 0.91015625 2.19140625 0.91015625 4 2 C-10.94382022 10.20224719 -10.94382022 10.20224719 -16 12 C-16.66 11.67 -17.32 11.34 -18 11 C-15.30643993 9.26599026 -12.60751066 7.54174194 -9.8984375 5.83203125 C-8.20586078 4.76219502 -6.51993981 3.6814146 -4.8515625 2.57421875 C-3.0625 1.4375 -3.0625 1.4375 0 0 Z " fill="#1D2524" transform="translate(182,146)"/>
<path d="M0 0 C0.33 0.66 0.66 1.32 1 2 C2.98 2 4.96 2 7 2 C7 2.66 7 3.32 7 4 C5.68 4 4.36 4 3 4 C3.33 5.32 3.66 6.64 4 8 C1.03 7.67 -1.94 7.34 -5 7 C-5.33 7.66 -5.66 8.32 -6 9 C-6 7.35 -6 5.7 -6 4 C-6.66 3.67 -7.32 3.34 -8 3 C-6.865625 2.87625 -5.73125 2.7525 -4.5625 2.625 C-3.386875 2.41875 -2.21125 2.2125 -1 2 C-0.67 1.34 -0.34 0.68 0 0 Z " fill="#0D0C0B" transform="translate(274,114)"/>
<path d="M0 0 C0.33 0 0.66 0 1 0 C1 1.65 1 3.3 1 5 C-5.95214281 6.31191997 -12.88444903 6.11058058 -19.9375 6.0625 C-21.19369141 6.05798828 -22.44988281 6.05347656 -23.74414062 6.04882812 C-26.82947663 6.03709681 -29.91471316 6.020681 -33 6 C-33.33 6.66 -33.66 7.32 -34 8 C-34 7.01 -34 6.02 -34 5 C-27.73 5 -21.46 5 -15 5 C-14.67 4.34 -14.34 3.68 -14 3 C-12.96875 3.226875 -11.9375 3.45375 -10.875 3.6875 C-6.49500149 4.04072569 -4.67878783 3.27734485 -1 1 C-0.67 0.67 -0.34 0.34 0 0 Z " fill="#47909D" transform="translate(397,299)"/>
<path d="M0 0 C1.2065625 0.0309375 1.2065625 0.0309375 2.4375 0.0625 C2.4375 1.0525 2.4375 2.0425 2.4375 3.0625 C-2.33342956 4.29652862 -6.98719446 4.17515112 -11.875 4.125 C-12.71095703 4.12048828 -13.54691406 4.11597656 -14.40820312 4.11132812 C-16.45966649 4.09960548 -18.51109273 4.08167203 -20.5625 4.0625 C-20.5625 3.4025 -20.5625 2.7425 -20.5625 2.0625 C-18.73912109 1.97162109 -18.73912109 1.97162109 -16.87890625 1.87890625 C-15.29425772 1.79451668 -13.70962298 1.7098679 -12.125 1.625 C-11.32255859 1.58568359 -10.52011719 1.54636719 -9.69335938 1.50585938 C-6.13718939 1.3107952 -3.25169171 0.07930955 0 0 Z " fill="#2E7380" transform="translate(114.5625,362.9375)"/>
<path d="M0 0 C0.66 0 1.32 0 2 0 C2.02686553 1.97909398 2.04633375 3.95828971 2.0625 5.9375 C2.07410156 7.03964844 2.08570313 8.14179688 2.09765625 9.27734375 C2 12 2 12 1 13 C-0.4887186 13.08669432 -1.981445 13.10703494 -3.47265625 13.09765625 C-4.37177734 13.09443359 -5.27089844 13.09121094 -6.19726562 13.08789062 C-7.14279297 13.07951172 -8.08832031 13.07113281 -9.0625 13.0625 C-10.01189453 13.05798828 -10.96128906 13.05347656 -11.93945312 13.04882812 C-14.29303065 13.0370011 -16.64648477 13.02052025 -19 13 C-18.34 11.35 -17.68 9.7 -17 8 C-16.67 9.32 -16.34 10.64 -16 12 C-10.72 12 -5.44 12 0 12 C0 8.04 0 4.08 0 0 Z " fill="#37A7BA" transform="translate(380,273)"/>
<path d="M0 0 C1.485 0.99 1.485 0.99 3 2 C3.28051758 4.03125 3.28051758 4.03125 3.14453125 6.5 C3.09876953 7.386875 3.05300781 8.27375 3.00585938 9.1875 C2.94205078 10.115625 2.87824219 11.04375 2.8125 12 C2.76802734 12.928125 2.72355469 13.85625 2.67773438 14.8125 C2.27055985 21.72944015 2.27055985 21.72944015 0 24 C0 16.08 0 8.16 0 0 Z " fill="#3A8791" transform="translate(472,272)"/>
<path d="M0 0 C0.66 0.33 1.32 0.66 2 1 C-3 6 -3 6 -5.3125 8.125 C-7.33448237 9.95122132 -7.33448237 9.95122132 -7 13 C-7.57234375 13.08121094 -8.1446875 13.16242188 -8.734375 13.24609375 C-11.69947685 14.23275695 -13.10575681 15.81104466 -15.25 18.0625 C-15.95640625 18.79597656 -16.6628125 19.52945313 -17.390625 20.28515625 C-18.18726562 21.13400391 -18.18726562 21.13400391 -19 22 C-19.66 21.67 -20.32 21.34 -21 21 C-14.07 14.07 -7.14 7.14 0 0 Z " fill="#374041" transform="translate(128,182)"/>
<path d="M0 0 C-0.969375 0.268125 -1.93875 0.53625 -2.9375 0.8125 C-3.948125 1.204375 -4.95875 1.59625 -6 2 C-6.33 2.99 -6.66 3.98 -7 5 C-13.15234375 5.87890625 -13.15234375 5.87890625 -15 6 C-15.33 5.67 -15.66 5.34 -16 5 C-17.32594105 4.63837971 -18.65938457 4.30271961 -20 4 C-5.48987854 -1.70040486 -5.48987854 -1.70040486 0 0 Z " fill="#292C2B" transform="translate(251,120)"/>
<path d="M0 0 C6.75 0.875 6.75 0.875 9 2 C9.33 1.34 9.66 0.68 10 0 C13 2 16 4 19 6 C12.69203097 6.35044272 6.78634905 5.74090218 1 3 C0.67 2.01 0.34 1.02 0 0 Z " fill="#191B1A" transform="translate(357,121)"/>
<path d="M0 0 C-1 3 -1 3 -4.45703125 5.0078125 C-5.90378777 5.72387046 -7.35589521 6.42919404 -8.8125 7.125 C-9.53759766 7.48464844 -10.26269531 7.84429687 -11.00976562 8.21484375 C-14.32705553 9.8355508 -17.3817742 11.19550344 -21 12 C-21.33 11.34 -21.66 10.68 -22 10 C-21.39414062 9.78085937 -20.78828125 9.56171875 -20.1640625 9.3359375 C-14.37377551 7.14453658 -9.24769308 4.50643672 -4.03125 1.171875 C-2 0 -2 0 0 0 Z " fill="#09252A" transform="translate(440,349)"/>
<path d="M0 0 C0.66 0.33 1.32 0.66 2 1 C1.01 3.97 0.02 6.94 -1 10 C-0.34 10.33 0.32 10.66 1 11 C0.01 13.64 -0.98 16.28 -2 19 C-2.66 18.34 -3.32 17.68 -4 17 C-4.66 17.33 -5.32 17.66 -6 18 C-4.41039668 11.76559832 -2.72399099 5.83712355 0 0 Z " fill="#2B4547" transform="translate(48,301)"/>
<path d="M0 0 C7.26 0.33 14.52 0.66 22 1 C22 1.66 22 2.32 22 3 C11.605 3.495 11.605 3.495 1 4 C0.67 2.68 0.34 1.36 0 0 Z " fill="#32A4B7" transform="translate(332,238)"/>
<path d="M0 0 C1.21236328 0.01353516 1.21236328 0.01353516 2.44921875 0.02734375 C3.37154297 0.04474609 3.37154297 0.04474609 4.3125 0.0625 C3.3125 3.0625 3.3125 3.0625 1.421875 4.046875 C-6.39819182 6.58451258 -6.39819182 6.58451258 -10.6875 5.0625 C-7.65508091 0.58607181 -5.29115239 -0.07668337 0 0 Z " fill="#1D1E1E" transform="translate(233.6875,123.9375)"/>
<path d="M0 0 C0.33 0.99 0.66 1.98 1 3 C1.99 3.33 2.98 3.66 4 4 C-0.62 4 -5.24 4 -10 4 C-10 3.01 -10 2.02 -10 1 C-6.52674819 -0.1577506 -3.63932552 -0.06866652 0 0 Z " fill="#335F62" transform="translate(212,363)"/>
<path d="M0 0 C0.99 0.33 1.98 0.66 3 1 C1.63875 2.0209375 1.63875 2.0209375 0.25 3.0625 C-3.67686503 6.37521078 -6.67151205 9.9800301 -7.2421875 15.2265625 C-7.24899372 17.15272213 -7.13483834 19.0785537 -7 21 C-7.99 20.67 -8.98 20.34 -10 20 C-9.67 18.02 -9.34 16.04 -9 14 C-9.66 13.67 -10.32 13.34 -11 13 C-10.34 13 -9.68 13 -9 13 C-8.814375 12.154375 -8.62875 11.30875 -8.4375 10.4375 C-6.54205308 5.90490954 -3.59960978 3.25312328 0 0 Z " fill="#0F2E34" transform="translate(366,276)"/>
<path d="M0 0 C3.3 0 6.6 0 10 0 C10 2.97 10 5.94 10 9 C6.54926675 6.07013215 3.20189285 3.20189285 0 0 Z " fill="#27A6BB" transform="translate(389,272)"/>
<path d="M0 0 C1.98 0 3.96 0 6 0 C6 3.3 6 6.6 6 10 C4 7 4 7 4 5 C2.02 5.33 0.04 5.66 -2 6 C-1.33333333 4 -0.66666667 2 0 0 Z " fill="#34B6CD" transform="translate(392,286)"/>
<path d="M0 0 C2.875 -0.125 2.875 -0.125 6 0 C6.66 0.66 7.32 1.32 8 2 C3.05 4.31 -1.9 6.62 -7 9 C-7.33 8.01 -7.66 7.02 -8 6 C-5.36 4.68 -2.72 3.36 0 2 C0 1.34 0 0.68 0 0 Z " fill="#1A1D1D" transform="translate(194,138)"/>
<path d="M0 0 C0.99 0 1.98 0 3 0 C4.44767442 8.98255814 4.44767442 8.98255814 2.625 13.125 C2.08875 13.74375 1.5525 14.3625 1 15 C0.67 15 0.34 15 0 15 C0 10.05 0 5.1 0 0 Z " fill="#3FAFC5" transform="translate(356,273)"/>
<path d="M0 0 C-3.3 1.32 -6.6 2.64 -10 4 C-9.34 4.66 -8.68 5.32 -8 6 C-11.43515002 6.62457273 -14.49064814 7 -18 7 C-18 6.34 -18 5.68 -18 5 C-15.75564555 3.96483652 -13.50593133 2.94685023 -11.25 1.9375 C-10.29867187 1.49567383 -10.29867187 1.49567383 -9.328125 1.04492188 C-5.47519847 -0.66080081 -4.23792429 -1.05948107 0 0 Z " fill="#2D3535" transform="translate(214,132)"/>
<path d="M0 0 C0.33 0.66 0.66 1.32 1 2 C3.31 2 5.62 2 8 2 C7.67 2.66 7.34 3.32 7 4 C4.93359375 4.4140625 4.93359375 4.4140625 2.4375 4.625 C1.61121094 4.69976562 0.78492188 4.77453125 -0.06640625 4.8515625 C-1.02353516 4.92503906 -1.02353516 4.92503906 -2 5 C-2 4.34 -2 3.68 -2 3 C-3.98 3 -5.96 3 -8 3 C-8 2.34 -8 1.68 -8 1 C-5.36 0.67 -2.72 0.34 0 0 Z " fill="#242321" transform="translate(283,113)"/>
<path d="M0 0 C0.99 0.66 1.98 1.32 3 2 C1.02 5.96 -0.96 9.92 -3 14 C-3.99 14 -4.98 14 -6 14 C-4.50829734 9.0276578 -2.39542583 4.58154261 0 0 Z " fill="#171D1D" transform="translate(65,267)"/>
<path d="M0 0 C0.66 1.32 1.32 2.64 2 4 C-8.89 3.67 -19.78 3.34 -31 3 C-31 2.67 -31 2.34 -31 2 C-20.77 2 -10.54 2 0 2 C0 1.34 0 0.68 0 0 Z " fill="#3CAEBF" transform="translate(298,237)"/>
<path d="M0 0 C3.36236884 0.56039481 6.0151516 1.36314765 9 3 C9.7425 3.37125 10.485 3.7425 11.25 4.125 C12.11625 4.558125 12.11625 4.558125 13 5 C7.25 5.125 7.25 5.125 5 4 C4.67 4.66 4.34 5.32 4 6 C1.03 5.505 1.03 5.505 -2 5 C-2 4.34 -2 3.68 -2 3 C-2.99 2.67 -3.98 2.34 -5 2 C-3.35 2 -1.7 2 0 2 C0 1.34 0 0.68 0 0 Z " fill="#131413" transform="translate(335,114)"/>
<path d="M0 0 C0.66 0.33 1.32 0.66 2 1 C1.814375 2.093125 1.62875 3.18625 1.4375 4.3125 C0.7421932 7.93624133 0.7421932 7.93624133 2 11 C1.5625 13.1875 1.5625 13.1875 1 15 C-0.32 14.67 -1.64 14.34 -3 14 C-2.48594831 9.03083364 -1.76615118 4.70973649 0 0 Z " fill="#2C3F43" transform="translate(38,330)"/>
<path d="M0 0 C2.86453858 3.41016497 4.34703566 6.90694544 6 11 C6.66 11 7.32 11 8 11 C7.67 12.65 7.34 14.3 7 16 C2.80063411 12.25461961 0.7233789 9.26587999 -1 4 C-0.6875 1.5625 -0.6875 1.5625 0 0 Z " fill="#182021" transform="translate(460,203)"/>
<path d="M0 0 C0.66 0.99 1.32 1.98 2 3 C-0.38151214 5.63219763 -2.96303641 7.19228358 -6 9 C-7.68477344 10.31037934 -9.35648543 11.63823078 -11 13 C-11.33 12.01 -11.66 11.02 -12 10 C-11.319375 9.649375 -10.63875 9.29875 -9.9375 8.9375 C-6.116342 6.41716174 -3.14280085 3.30582798 0 0 Z " fill="#181A1A" transform="translate(118,194)"/>
<path d="M0 0 C-3.96 1.98 -3.96 1.98 -8 4 C-8 4.99 -8 5.98 -8 7 C-10.31 7 -12.62 7 -15 7 C-15 6.34 -15 5.68 -15 5 C-13.06891037 3.96709159 -11.129882 2.94901328 -9.1875 1.9375 C-8.10855469 1.36902344 -7.02960938 0.80054688 -5.91796875 0.21484375 C-3 -1 -3 -1 0 0 Z " fill="#2E3438" transform="translate(195,140)"/>
<path d="M0 0 C1.32 0 2.64 0 4 0 C4.66 1.32 5.32 2.64 6 4 C1.71 4 -2.58 4 -7 4 C-7 3.34 -7 2.68 -7 2 C-4.69 2 -2.38 2 0 2 C0 1.34 0 0.68 0 0 Z " fill="#243C3F" transform="translate(325,362)"/>
<path d="M0 0 C2.30153291 2.30153291 2.7577028 3.84875905 3.6875 6.9375 C3.95949219 7.81277344 4.23148437 8.68804687 4.51171875 9.58984375 C5 12 5 12 4 15 C3.67 13.68 3.34 12.36 3 11 C2.34 11 1.68 11 1 11 C-0.28317892 7.15046324 -0.06643637 4.05261865 0 0 Z " fill="#151C1D" transform="translate(467,220)"/>
<path d="M0 0 C0 0.99 0 1.98 0 3 C-2.1236964 5.01576128 -4.22718966 6.85649375 -6.5 8.6875 C-7.12003906 9.19861328 -7.74007812 9.70972656 -8.37890625 10.23632812 C-9.91277456 11.49881973 -11.45556832 12.75045294 -13 14 C-13 11 -13 11 -10.91796875 8.80859375 C-10.01691406 8.02613281 -9.11585938 7.24367187 -8.1875 6.4375 C-6.84751953 5.25994141 -6.84751953 5.25994141 -5.48046875 4.05859375 C-3 2 -3 2 0 0 Z " fill="#303940" transform="translate(145,168)"/>
<path d="M0 0 C0.33 0.66 0.66 1.32 1 2 C1.99 2.33 2.98 2.66 4 3 C1.7671123 5.2328877 1.08090185 5.36778152 -1.9375 5.75 C-2.97197266 5.89695312 -2.97197266 5.89695312 -4.02734375 6.046875 C-6 6 -6 6 -9 4 C-8.43410156 3.87882812 -7.86820313 3.75765625 -7.28515625 3.6328125 C-6.18494141 3.38144531 -6.18494141 3.38144531 -5.0625 3.125 C-4.33160156 2.96257812 -3.60070312 2.80015625 -2.84765625 2.6328125 C-0.79299706 2.17038477 -0.79299706 2.17038477 0 0 Z " fill="#181817" transform="translate(251,118)"/>
<path d="M0 0 C3.45201639 1.47721422 5.64961936 3.43794001 8.25 6.125 C8.95640625 6.84945312 9.6628125 7.57390625 10.390625 8.3203125 C11.18726563 9.15175781 11.18726563 9.15175781 12 10 C11.01 10.33 10.02 10.66 9 11 C5.36440339 7.56638098 2.63886654 4.2026393 0 0 Z " fill="#171C21" transform="translate(420,152)"/>
<path d="M0 0 C0.65234375 1.734375 0.65234375 1.734375 1 4 C0.00390625 6.140625 0.00390625 6.140625 -1.4375 8.25 C-1.91058594 8.95640625 -2.38367188 9.6628125 -2.87109375 10.390625 C-3.24363281 10.92171875 -3.61617188 11.4528125 -4 12 C-5.29312675 9.4137465 -4.84290464 8.23583025 -4.25 5.4375 C-4.09015625 4.63183594 -3.9303125 3.82617188 -3.765625 2.99609375 C-3.51296875 2.33738281 -3.2603125 1.67867187 -3 1 C-2.01 0.67 -1.02 0.34 0 0 Z " fill="#1E3032" transform="translate(81,240)"/>
<path d="M0 0 C0 0.99 0 1.98 0 3 C-3.82989106 4.80230168 -6.78121808 5.19622241 -11 5 C-9.70976282 2.41952564 -8.72910609 2.32977036 -6.0625 1.375 C-5.35222656 1.11460937 -4.64195312 0.85421875 -3.91015625 0.5859375 C-2 0 -2 0 0 0 Z " fill="#191B1B" transform="translate(214,132)"/>
<path d="M0 0 C2 3 2 3 2 7 C2.66 7 3.32 7 4 7 C4.33 8.32 4.66 9.64 5 11 C4.34 11 3.68 11 3 11 C2.67 11.99 2.34 12.98 2 14 C1.87882812 13.14535156 1.75765625 12.29070312 1.6328125 11.41015625 C1.46523438 10.30542969 1.29765625 9.20070312 1.125 8.0625 C0.96257812 6.96035156 0.80015625 5.85820312 0.6328125 4.72265625 C0.42398437 3.82417969 0.21515625 2.92570313 0 2 C-0.66 1.67 -1.32 1.34 -2 1 C-1.34 0.67 -0.68 0.34 0 0 Z " fill="#151A1C" transform="translate(472,237)"/>
<path d="M0 0 C0.66 0.33 1.32 0.66 2 1 C-1.49087093 5.0042343 -3.64951939 6.62671065 -9 7 C-6.25604436 4.05278838 -3.61662784 1.80831392 0 0 Z " fill="#161A1A" transform="translate(173,151)"/>
<path d="M0 0 C-1 3 -1 3 -2.84765625 4.16796875 C-3.57855469 4.50441406 -4.30945313 4.84085937 -5.0625 5.1875 C-5.79597656 5.53167969 -6.52945312 5.87585938 -7.28515625 6.23046875 C-8.13400391 6.61138672 -8.13400391 6.61138672 -9 7 C-9.66 6.34 -10.32 5.68 -11 5 C-10.071875 4.54625 -9.14375 4.0925 -8.1875 3.625 C-1.07692308 0 -1.07692308 0 0 0 Z " fill="#0A2D33" transform="translate(440,349)"/>
<path d="M0 0 C0.66 0.33 1.32 0.66 2 1 C-0.10618315 3.94865641 -2.39391727 6.4837822 -5 9 C-5.66 8.34 -6.32 7.68 -7 7 C-4.69 4.69 -2.38 2.38 0 0 Z " fill="#181919" transform="translate(127,185)"/>
<path d="M0 0 C1.32 0.33 2.64 0.66 4 1 C0.04 4.465 0.04 4.465 -4 8 C-4 4.09161134 -2.49432124 2.88405893 0 0 Z " fill="#292C2C" transform="translate(141,173)"/>
<path d="M0 0 C2.4375 0.75 2.4375 0.75 5 2 C5.6875 3.8125 5.6875 3.8125 6 6 C6.6469365 7.6744239 7.30959426 9.34302621 8 11 C2.19794344 5.35475578 2.19794344 5.35475578 0 2 C0 1.34 0 0.68 0 0 Z " fill="#1A1E1E" transform="translate(441,173)"/>
<path d="M0 0 C-0.33 0.66 -0.66 1.32 -1 2 C-3.64 1.67 -6.28 1.34 -9 1 C-9.33 1.66 -9.66 2.32 -10 3 C-9.67 1.68 -9.34 0.36 -9 -1 C-3.375 -2.25 -3.375 -2.25 0 0 Z " fill="#2B2A27" transform="translate(278,120)"/>
<path d="M0 0 C2.31 0 4.62 0 7 0 C7 0.66 7 1.32 7 2 C7.99 2.33 8.98 2.66 10 3 C3.375 3.125 3.375 3.125 0 2 C0 1.34 0 0.68 0 0 Z " fill="#222B38" transform="translate(206,364)"/>
<path d="M0 0 C0.66 0.99 1.32 1.98 2 3 C0.35 5.31 -1.3 7.62 -3 10 C-3.66 9.34 -4.32 8.68 -5 8 C-3.35 5.36 -1.7 2.72 0 0 Z " fill="#0A2E35" transform="translate(463,321)"/>
<path d="M0 0 C1.485 0.99 1.485 0.99 3 2 C2.34 3.98 1.68 5.96 1 8 C0.34 8 -0.32 8 -1 8 C-0.67 5.36 -0.34 2.72 0 0 Z " fill="#1A2527" transform="translate(33,357)"/>
<path d="M0 0 C0.66 0 1.32 0 2 0 C1.67 2.64 1.34 5.28 1 8 C1.66 8.33 2.32 8.66 3 9 C1.68 9 0.36 9 -1 9 C-0.67 6.03 -0.34 3.06 0 0 Z " fill="#3B5357" transform="translate(31,357)"/>
<path d="M0 0 C1.03159626 3.09478879 0.97482862 4.52631393 0.5625 7.6875 C0.46066406 8.49574219 0.35882813 9.30398438 0.25390625 10.13671875 C0.17011719 10.75160156 0.08632813 11.36648438 0 12 C-0.99 12.33 -1.98 12.66 -3 13 C-2.52060632 8.28596212 -2.03165952 4.33420699 0 0 Z " fill="#161919" transform="translate(41,326)"/>
<path d="M0 0 C0.66 1.32 1.32 2.64 2 4 C-1.96 3.67 -5.92 3.34 -10 3 C-10 2.67 -10 2.34 -10 2 C-6.7 2 -3.4 2 0 2 C0 1.34 0 0.68 0 0 Z " fill="#37A7BA" transform="translate(298,237)"/>
<path d="M0 0 C-2 2 -2 2 -3.9453125 2.1953125 C-5.96354167 2.13020833 -7.98177083 2.06510417 -10 2 C-10 1.34 -10 0.68 -10 0 C-6.7169902 -1.6415049 -3.57454967 -0.51888624 0 0 Z " fill="#262F2F" transform="translate(206,137)"/>
<path d="M0 0 C2 4 2 4 1.8125 6.1875 C1.4103125 7.0846875 1.4103125 7.0846875 1 8 C0.01 8.33 -0.98 8.66 -2 9 C-1.34 6.03 -0.68 3.06 0 0 Z " fill="#17191A" transform="translate(44,316)"/>
<path d="M0 0 C0.33 0 0.66 0 1 0 C1 2.31 1 4.62 1 7 C-0.32 7.33 -1.64 7.66 -3 8 C-1.125 2.25 -1.125 2.25 0 0 Z " fill="#27A4BE" transform="translate(471,309)"/>
<path d="M0 0 C0.33 0 0.66 0 1 0 C1 1.65 1 3.3 1 5 C-1.31 5 -3.62 5 -6 5 C-5.195625 4.360625 -4.39125 3.72125 -3.5625 3.0625 C-1.7249496 1.59396498 -1.7249496 1.59396498 0 0 Z " fill="#3FBED3" transform="translate(397,299)"/>
<path d="M0 0 C3.37503669 1.1858237 5.64722731 2.27573689 8 5 C4.28400809 5.20086443 3.22791555 5.1519437 0 3 C0 2.01 0 1.02 0 0 Z " fill="#191C1B" transform="translate(398,137)"/>
<path d="M0 0 C-0.33 0.66 -0.66 1.32 -1 2 C-3.375 2.75 -3.375 2.75 -6 3 C-6.99 2.34 -7.98 1.68 -9 1 C-3.375 -1.125 -3.375 -1.125 0 0 Z " fill="#131313" transform="translate(238,125)"/>
<path d="M0 0 C2.31 0 4.62 0 7 0 C7 0.66 7 1.32 7 2 C4.69 2.66 2.38 3.32 0 4 C0 2.68 0 1.36 0 0 Z " fill="#29BCD5" transform="translate(382,287)"/>
<path d="M0 0 C1 2 1 2 0.0625 5.125 C-0.288125 6.07375 -0.63875 7.0225 -1 8 C-1.99 8 -2.98 8 -4 8 C-2.87548273 5.0280615 -1.77706209 2.66559313 0 0 Z " fill="#171D1E" transform="translate(76,248)"/>
<path d="M0 0 C2.31 1.98 4.62 3.96 7 6 C6.67 6.66 6.34 7.32 6 8 C1.3125 4.38671875 1.3125 4.38671875 0 3 C0 2.01 0 1.02 0 0 Z " fill="#171C1D" transform="translate(433,164)"/>
</svg>
